<svg width="13" height="13" viewBox="0 0 13 13" fill="none" xmlns="http://www.w3.org/2000/svg">
<g clip-path="url(#clip0)">
<path d="M5.309 6.5112L0.247054 1.4491C-0.0823689 1.11983 -0.0823689 0.58745 0.247054 0.258182C0.576323 -0.0710866 1.1087 -0.0710866 1.43797 0.258182L6.50007 5.32028L11.562 0.258182C11.8914 -0.0710866 12.4237 -0.0710866 12.7529 0.258182C13.0824 0.58745 13.0824 1.11983 12.7529 1.4491L7.69099 6.5112L12.7529 11.5733C13.0824 11.9026 13.0824 12.4349 12.7529 12.7642C12.5888 12.9285 12.3731 13.011 12.1575 13.011C11.9419 13.011 11.7263 12.9285 11.562 12.7642L6.50007 7.70211L1.43797 12.7642C1.27372 12.9285 1.05812 13.011 0.842514 13.011C0.626908 13.011 0.411303 12.9285 0.247054 12.7642C-0.0823689 12.4349 -0.0823689 11.9026 0.247054 11.5733L5.309 6.5112Z" fill="url(#paint0_linear)"/>
</g>
<defs>
<linearGradient id="paint0_linear" x1="13" y1="6.5111" x2="-1.23736e-05" y2="6.5111" gradientUnits="userSpaceOnUse">
<stop stop-color="#1C60C7"/>
<stop offset="1" stop-color="#3380EB"/>
</linearGradient>
<clipPath id="clip0">
<rect width="13" height="13" fill="white" transform="matrix(-1 0 0 1 13 0)"/>
</clipPath>
</defs>
</svg>
