<svg width="48" height="48" viewBox="0 0 48 48" fill="none" xmlns="http://www.w3.org/2000/svg">
<g clip-path="url(#clip0)">
<path d="M47.2 46.4009H43.9506C43.9847 46.138 44.0001 45.8696 44.0001 45.6009C44.0001 43.3428 42.7006 41.4208 40.8001 40.5307V13.6009C40.8001 13.1209 40.4801 12.8009 40.0001 12.8009H28.0001V0.800945C28.0001 0.320945 27.6802 0.000976583 27.2002 0.000976583H5.60016C5.11997 0.000882833 4.8 0.320852 4.8 0.800852V46.4009H0.799969C0.319969 46.4009 0 46.7208 0 47.2008C0 47.6808 0.319969 48.0009 0.799969 48.0009H5.59997H7.99997H27.2H42.96H47.2C47.68 48.0009 48 47.6809 48 47.2009C48 46.7209 47.68 46.4009 47.2 46.4009ZM39.2 40.0574C38.9389 40.0209 38.6721 40.0008 38.4 40.0008C37.7961 40.0008 37.2037 40.1037 36.644 40.2959C36.5046 40.1101 36.2798 40.0008 36 40.0008C35.52 40.0008 35.2 40.3208 35.2 40.8008V41.0459C34.8968 41.2644 34.6149 41.5136 34.3591 41.7906C34.3187 41.8334 34.2789 41.8767 34.24 41.9207C33.5771 41.0921 32.7233 40.4926 31.7578 40.2008C31.6192 40.0736 31.428 40.0007 31.2 40.0007C31.1108 40.0007 31.0272 40.0119 30.9501 40.033C30.7694 40.0119 30.5859 40.0007 30.4 40.0007C29.8987 40.0007 29.3341 40.0658 28.8767 40.2515C28.8201 40.2706 28.7638 40.2903 28.7081 40.3114C28.1553 39.862 27.5087 39.5384 26.8273 39.3604C26.8201 39.3584 26.8127 39.357 26.8056 39.3551C26.7461 39.3398 26.6865 39.3253 26.6266 39.3122C26.578 39.3015 26.5289 39.2923 26.4799 39.2831C26.4586 39.2791 26.4373 39.2749 26.4159 39.2713C26.3645 39.2624 26.3128 39.2545 26.2608 39.2473C26.2375 39.244 26.2143 39.2411 26.1909 39.2382C26.1432 39.2323 26.0953 39.2267 26.0471 39.2223C26.012 39.219 25.9767 39.2166 25.9415 39.2141C25.9038 39.2114 25.8662 39.2084 25.8282 39.2066C25.7522 39.2029 25.6762 39.2007 25.6 39.2007C25.5412 39.2007 25.4828 39.2019 25.4246 39.204C25.3866 39.2053 25.3486 39.2077 25.3106 39.2099C25.2954 39.2108 25.2801 39.2114 25.2649 39.2125C24.5361 39.2608 23.82 39.4665 23.1999 39.8308V14.4009H27.2H39.2V40.0574ZM6.40003 1.60091H26.4V12.8009H22.4C21.92 12.8009 21.6 13.1209 21.6 13.6009V38.4809C21.1912 38.0721 20.7199 37.7263 20.2068 37.4556C20.1615 37.4314 20.1157 37.408 20.0698 37.3851C20.0517 37.3762 20.0338 37.3669 20.0156 37.3582C19.4447 37.0813 18.8234 36.8996 18.1742 36.8316C18.1651 36.8307 18.1559 36.8299 18.1467 36.829C18.0713 36.8215 17.9956 36.8156 17.9195 36.8112C17.8993 36.8099 17.8792 36.8087 17.8589 36.8077C17.7729 36.8037 17.6867 36.8009 17.6 36.8009C16.4093 36.8009 15.3063 37.1925 14.4 37.8507V37.601C14.4 37.121 14.08 36.801 13.6 36.801C13.12 36.801 12.8001 37.121 12.8001 37.601V39.201C12.8001 39.321 12.82 39.431 12.8575 39.5285C12.4647 40.1758 12.1941 40.9056 12.0801 41.6811C11.1591 41.7864 10.3169 42.1178 9.60009 42.6133V42.4011C9.60009 41.9211 9.28012 41.6011 8.80013 41.6011C8.32012 41.6011 8.00016 41.9211 8.00016 42.4011V44.0011C8.00016 44.0945 8.01262 44.1816 8.03569 44.2617C7.63903 44.9032 7.36912 45.6291 7.25794 46.401H6.40022V1.60091H6.40003ZM12.4359 43.2175C12.4518 43.2161 12.4678 43.2151 12.4838 43.2139C12.5259 43.2106 12.5681 43.2074 12.6107 43.2055C12.6734 43.2027 12.7365 43.2008 12.8001 43.2008C13.2801 43.2008 13.6 42.8808 13.6 42.4008C13.6 40.1609 15.36 38.4008 17.6001 38.4008C19.6 38.4008 21.28 39.8408 21.52 41.8408C21.5741 42.0571 21.7026 42.2354 21.8783 42.3539C21.8893 42.3617 21.9007 42.369 21.9122 42.3763C21.9246 42.3839 21.9368 42.3915 21.9497 42.3985C21.9792 42.4148 22.01 42.4297 22.042 42.4425C22.0433 42.443 22.0444 42.4435 22.0456 42.444C22.0823 42.4587 22.1205 42.4709 22.16 42.4808C22.1601 42.4808 22.1601 42.4808 22.1602 42.4809C22.2078 42.4967 22.2619 42.5028 22.3191 42.501C22.582 42.5049 22.8266 42.3611 22.96 42.1611C22.96 42.161 22.9601 42.161 22.9602 42.1609L23.0402 42.0809C23.6802 41.281 24.5602 40.801 25.6002 40.801C26.1404 40.801 26.6803 40.9523 27.1649 41.2352C26.2106 42.1325 25.6695 43.3022 25.6066 44.5538C25.6024 44.6356 25.6002 44.7181 25.6002 44.801C25.6002 45.3573 25.6928 45.8905 25.8758 46.401H8.88C9.25444 44.6786 10.6804 43.3769 12.4359 43.2175ZM27.7644 46.4009C27.4588 45.8839 27.28 45.2728 27.28 44.7209C27.28 43.8362 27.6288 43.0393 28.2282 42.4567C28.3428 42.3505 28.4649 42.2524 28.5939 42.1636C28.7189 42.1646 28.8446 42.1385 28.96 42.0808C30.72 41.1208 32.8 42.0009 33.4401 43.7609C33.52 44.0009 33.76 44.2409 34.1601 44.2409C34.236 44.2409 34.32 44.2167 34.4044 44.1737C34.6051 44.1408 34.7638 43.9934 34.8801 43.7609C35.1901 43.1021 35.6701 42.5761 36.2543 42.2074C36.3804 42.1723 36.4887 42.11 36.5749 42.0255C37.1243 41.7494 37.7472 41.6009 38.4001 41.6009C40.6401 41.6009 42.4001 43.3608 42.4001 45.6009C42.4001 45.8409 42.4001 46.1609 42.3202 46.4009H27.7644Z" fill="black"/>
<path d="M26.3996 20.8C25.9196 20.8 25.5996 21.12 25.5996 21.6V23.2C25.5996 23.68 25.9196 24 26.3996 24C26.8796 24 27.1995 23.68 27.1995 23.2V21.6C27.1995 21.12 26.8796 20.8 26.3996 20.8Z" fill="black"/>
<path d="M26.3996 35.2C25.9196 35.2 25.5996 35.5199 25.5996 35.9999V37.6C25.5996 38.08 25.9196 38.3999 26.3996 38.3999C26.8796 38.3999 27.1995 38.08 27.1995 37.6V35.9999C27.1995 35.5199 26.8796 35.2 26.3996 35.2Z" fill="black"/>
<path d="M26.3996 25.6001C25.9196 25.6001 25.5996 25.9201 25.5996 26.4001V28.0001C25.5996 28.4801 25.9196 28.8001 26.3996 28.8001C26.8796 28.8001 27.1995 28.4801 27.1995 28.0001V26.4001C27.1995 25.9201 26.8796 25.6001 26.3996 25.6001Z" fill="black"/>
<path d="M26.3996 30.3999C25.9196 30.3999 25.5996 30.7199 25.5996 31.1999V32.7999C25.5996 33.2799 25.9196 33.5999 26.3996 33.5999C26.8796 33.5999 27.1995 33.2799 27.1995 32.7999V31.1999C27.1995 30.7199 26.8796 30.3999 26.3996 30.3999Z" fill="black"/>
<path d="M26.3996 16C25.9196 16 25.5996 16.32 25.5996 16.8V18.4C25.5996 18.88 25.9196 19.2 26.3996 19.2C26.8796 19.2 27.1995 18.88 27.1995 18.4V16.8C27.1995 16.32 26.8796 16 26.3996 16Z" fill="black"/>
<path d="M31.1984 24C31.6784 24 31.9984 23.68 31.9984 23.2V21.6C31.9984 21.12 31.6784 20.8 31.1984 20.8C30.7184 20.8 30.3984 21.12 30.3984 21.6V23.2C30.3984 23.68 30.7184 24 31.1984 24Z" fill="black"/>
<path d="M31.1984 19.2C31.6784 19.2 31.9984 18.88 31.9984 18.4V16.8C31.9984 16.32 31.6784 16 31.1984 16C30.7184 16 30.3984 16.32 30.3984 16.8V18.4C30.3984 18.88 30.7184 19.2 31.1984 19.2Z" fill="black"/>
<path d="M31.1984 28.8001C31.6784 28.8001 31.9984 28.4801 31.9984 28.0001V26.4001C31.9984 25.9201 31.6784 25.6001 31.1984 25.6001C30.7184 25.6001 30.3984 25.9201 30.3984 26.4001V28.0001C30.3984 28.4801 30.7184 28.8001 31.1984 28.8001Z" fill="black"/>
<path d="M31.1984 33.5999C31.6784 33.5999 31.9984 33.2799 31.9984 32.7999V31.1999C31.9984 30.7199 31.6784 30.3999 31.1984 30.3999C30.7184 30.3999 30.3984 30.7199 30.3984 31.1999V32.7999C30.3984 33.2799 30.7184 33.5999 31.1984 33.5999Z" fill="black"/>
<path d="M31.1984 38.3999C31.6784 38.3999 31.9984 38.08 31.9984 37.6V35.9999C31.9984 35.5199 31.6784 35.2 31.1984 35.2C30.7184 35.2 30.3984 35.5199 30.3984 35.9999V37.6C30.3984 38.08 30.7184 38.3999 31.1984 38.3999Z" fill="black"/>
<path d="M35.9992 28.8001C36.4792 28.8001 36.7992 28.4801 36.7992 28.0001V26.4001C36.7992 25.9201 36.4792 25.6001 35.9992 25.6001C35.5192 25.6001 35.1992 25.9201 35.1992 26.4001V28.0001C35.1992 28.4801 35.5192 28.8001 35.9992 28.8001Z" fill="black"/>
<path d="M35.9992 24C36.4792 24 36.7992 23.68 36.7992 23.2V21.6C36.7992 21.12 36.4792 20.8 35.9992 20.8C35.5192 20.8 35.1992 21.12 35.1992 21.6V23.2C35.1992 23.68 35.5192 24 35.9992 24Z" fill="black"/>
<path d="M35.9992 38.3999C36.4792 38.3999 36.7992 38.08 36.7992 37.6V35.9999C36.7992 35.5199 36.4792 35.2 35.9992 35.2C35.5192 35.2 35.1992 35.5199 35.1992 35.9999V37.6C35.1992 38.08 35.5192 38.3999 35.9992 38.3999Z" fill="black"/>
<path d="M35.9992 33.5999C36.4792 33.5999 36.7992 33.2799 36.7992 32.7999V31.1999C36.7992 30.7199 36.4792 30.3999 35.9992 30.3999C35.5192 30.3999 35.1992 30.7199 35.1992 31.1999V32.7999C35.1992 33.2799 35.5192 33.5999 35.9992 33.5999Z" fill="black"/>
<path d="M35.9992 19.2C36.4792 19.2 36.7992 18.88 36.7992 18.4V16.8C36.7992 16.32 36.4792 16 35.9992 16C35.5192 16 35.1992 16.32 35.1992 16.8V18.4C35.1992 18.88 35.5192 19.2 35.9992 19.2Z" fill="black"/>
<path d="M8.79997 30.4002C9.27997 30.4002 9.59994 30.0802 9.59994 29.6002V28.0002C9.59994 27.5202 9.27997 27.2002 8.79997 27.2002C8.31997 27.2002 8 27.5202 8 28.0002V29.6002C7.99991 30.0801 8.31997 30.4002 8.79997 30.4002Z" fill="black"/>
<path d="M8.79997 35.2C9.27997 35.2 9.59994 34.88 9.59994 34.4V32.8C9.59994 32.32 9.27997 32 8.79997 32C8.31997 32 8 32.32 8 32.8V34.4C7.99991 34.8799 8.31997 35.2 8.79997 35.2Z" fill="black"/>
<path d="M8.79997 40C9.27997 40 9.59994 39.68 9.59994 39.2V37.6C9.59994 37.12 9.27997 36.8 8.79997 36.8C8.31997 36.8 8 37.12 8 37.6V39.2C7.99991 39.68 8.31997 40 8.79997 40Z" fill="black"/>
<path d="M8.79997 6.40016C9.27997 6.40016 9.59994 6.0802 9.59994 5.6002V4.00016C9.59994 3.52016 9.27997 3.2002 8.79997 3.2002C8.31997 3.2002 8 3.52016 8 4.00016V5.6002C7.99991 6.0801 8.31997 6.40016 8.79997 6.40016Z" fill="black"/>
<path d="M8.79997 11.2C9.27997 11.2 9.59994 10.88 9.59994 10.4V8.79997C9.59994 8.31997 9.27997 8 8.79997 8C8.31997 8 8 8.31997 8 8.79997V10.4C7.99991 10.8799 8.31997 11.2 8.79997 11.2Z" fill="black"/>
<path d="M8.79997 16C9.27997 16 9.59994 15.6801 9.59994 15.2001V13.6C9.59994 13.12 9.27997 12.8 8.79997 12.8C8.31997 12.8 8 13.12 8 13.6V15.2001C7.99991 15.68 8.31997 16 8.79997 16Z" fill="black"/>
<path d="M8.79997 20.8001C9.27997 20.8001 9.59994 20.4801 9.59994 20.0001V18.4001C9.59994 17.9201 9.27997 17.6001 8.79997 17.6001C8.31997 17.6001 8 17.9201 8 18.4001V20.0001C7.99991 20.48 8.31997 20.8001 8.79997 20.8001Z" fill="black"/>
<path d="M8.79997 25.5999C9.27997 25.5999 9.59994 25.2799 9.59994 24.7999V23.1999C9.59994 22.7199 9.27997 22.3999 8.79997 22.3999C8.31997 22.3999 8 22.7199 8 23.1999V24.7999C7.99991 25.2798 8.31997 25.5999 8.79997 25.5999Z" fill="black"/>
<path d="M13.6008 11.2C14.0808 11.2 14.4007 10.88 14.4007 10.4V8.79997C14.4007 8.31997 14.0808 8 13.6008 8C13.1208 8 12.8008 8.31997 12.8008 8.79997V10.4C12.8007 10.8799 13.1208 11.2 13.6008 11.2Z" fill="black"/>
<path d="M13.6008 6.40016C14.0808 6.40016 14.4007 6.0802 14.4007 5.6002V4.00016C14.4007 3.52016 14.0808 3.2002 13.6008 3.2002C13.1208 3.2002 12.8008 3.52016 12.8008 4.00016V5.6002C12.8007 6.0801 13.1208 6.40016 13.6008 6.40016Z" fill="black"/>
<path d="M13.6008 20.8001C14.0808 20.8001 14.4007 20.4801 14.4007 20.0001V18.4001C14.4007 17.9201 14.0808 17.6001 13.6008 17.6001C13.1208 17.6001 12.8008 17.9201 12.8008 18.4001V20.0001C12.8007 20.48 13.1208 20.8001 13.6008 20.8001Z" fill="black"/>
<path d="M13.6008 16C14.0808 16 14.4007 15.6801 14.4007 15.2001V13.6C14.4007 13.12 14.0808 12.8 13.6008 12.8C13.1208 12.8 12.8008 13.12 12.8008 13.6V15.2001C12.8007 15.68 13.1208 16 13.6008 16Z" fill="black"/>
<path d="M13.6008 25.5999C14.0808 25.5999 14.4007 25.2799 14.4007 24.7999V23.1999C14.4007 22.7199 14.0808 22.3999 13.6008 22.3999C13.1208 22.3999 12.8008 22.7199 12.8008 23.1999V24.7999C12.8007 25.2798 13.1208 25.5999 13.6008 25.5999Z" fill="black"/>
<path d="M13.6008 30.4002C14.0808 30.4002 14.4007 30.0802 14.4007 29.6002V28.0002C14.4007 27.5202 14.0808 27.2002 13.6008 27.2002C13.1208 27.2002 12.8008 27.5202 12.8008 28.0002V29.6002C12.8007 30.0801 13.1208 30.4002 13.6008 30.4002Z" fill="black"/>
<path d="M13.6008 35.2C14.0808 35.2 14.4007 34.88 14.4007 34.4V32.8C14.4007 32.32 14.0808 32 13.6008 32C13.1208 32 12.8008 32.32 12.8008 32.8V34.4C12.8007 34.8799 13.1208 35.2 13.6008 35.2Z" fill="black"/>
<path d="M18.3996 16C18.8796 16 19.1995 15.6801 19.1995 15.2001V13.6C19.1995 13.12 18.8796 12.8 18.3996 12.8C17.9196 12.8 17.5996 13.12 17.5996 13.6V15.2001C17.5995 15.68 17.9196 16 18.3996 16Z" fill="black"/>
<path d="M18.3996 11.2C18.8796 11.2 19.1995 10.88 19.1995 10.4V8.79997C19.1995 8.31997 18.8796 8 18.3996 8C17.9196 8 17.5996 8.31997 17.5996 8.79997V10.4C17.5995 10.8799 17.9196 11.2 18.3996 11.2Z" fill="black"/>
<path d="M18.3996 6.40016C18.8796 6.40016 19.1995 6.0802 19.1995 5.6002V4.00016C19.1995 3.52016 18.8796 3.2002 18.3996 3.2002C17.9196 3.2002 17.5996 3.52016 17.5996 4.00016V5.6002C17.5995 6.0801 17.9196 6.40016 18.3996 6.40016Z" fill="black"/>
<path d="M18.3996 35.2C18.8796 35.2 19.1995 34.88 19.1995 34.4V32.8C19.1995 32.32 18.8796 32 18.3996 32C17.9196 32 17.5996 32.32 17.5996 32.8V34.4C17.5995 34.8799 17.9196 35.2 18.3996 35.2Z" fill="black"/>
<path d="M18.3996 30.4002C18.8796 30.4002 19.1995 30.0802 19.1995 29.6002V28.0002C19.1995 27.5202 18.8796 27.2002 18.3996 27.2002C17.9196 27.2002 17.5996 27.5202 17.5996 28.0002V29.6002C17.5995 30.0801 17.9196 30.4002 18.3996 30.4002Z" fill="black"/>
<path d="M18.3996 25.5999C18.8796 25.5999 19.1995 25.2799 19.1995 24.7999V23.1999C19.1995 22.7199 18.8796 22.3999 18.3996 22.3999C17.9196 22.3999 17.5996 22.7199 17.5996 23.1999V24.7999C17.5995 25.2798 17.9196 25.5999 18.3996 25.5999Z" fill="black"/>
<path d="M18.3996 20.8001C18.8796 20.8001 19.1995 20.4801 19.1995 20.0001V18.4001C19.1995 17.9201 18.8796 17.6001 18.3996 17.6001C17.9196 17.6001 17.5996 17.9201 17.5996 18.4001V20.0001C17.5995 20.48 17.9196 20.8001 18.3996 20.8001Z" fill="black"/>
<path d="M23.2004 11.2C23.6804 11.2 24.0003 10.88 24.0003 10.4V8.79997C24.0003 8.31997 23.6804 8 23.2004 8C22.7204 8 22.4004 8.31997 22.4004 8.79997V10.4C22.4003 10.8799 22.7204 11.2 23.2004 11.2Z" fill="black"/>
<path d="M23.2004 6.40016C23.6804 6.40016 24.0003 6.0802 24.0003 5.6002V4.00016C24.0003 3.52016 23.6804 3.2002 23.2004 3.2002C22.7204 3.2002 22.4004 3.52016 22.4004 4.00016V5.6002C22.4003 6.0801 22.7204 6.40016 23.2004 6.40016Z" fill="black"/>
</g>
<defs>
<clipPath id="clip0">
<rect width="48" height="48" fill="white"/>
</clipPath>
</defs>
</svg>
