<svg width="46" height="50" viewBox="0 0 46 50" fill="none" xmlns="http://www.w3.org/2000/svg">
<path d="M43.0224 37.0968L45.5614 30.1387L44.1952 29.5395L41.4377 37.0968H41.2001V27.4194H39.7286V14.5161H36.7858V11.2903H35.3143V14.5161H33.8429V9.67742H32.3715V14.5161H30.9V11.2903H29.4286V14.5161H26.4858V24.1935H23.5429V28.3298C21.8088 25.996 19.442 24.296 16.7559 23.5169L16.4219 22.4194C17.4946 22.0944 18.376 21.2629 18.8167 20.1613H19.1286C20.7516 20.1613 22.0715 18.7145 22.0715 16.9355V12.9032C22.883 12.9032 23.5429 12.1798 23.5429 11.2903V9.67742C23.5429 8.7879 22.883 8.06452 22.0715 8.06452H21.9434C21.2394 3.41935 17.6152 0 13.2429 0C8.87052 0 5.24639 3.41935 4.54231 8.06452H4.41429C3.6028 8.06452 2.94286 8.7879 2.94286 9.67742V11.2903C2.94286 12.1798 3.6028 12.9032 4.41429 12.9032V16.9355C4.41429 18.7145 5.73417 20.1613 7.35715 20.1613H7.6691C8.11053 21.2629 8.99118 22.0952 10.0639 22.4194L9.72984 23.5169C3.98022 25.179 0 30.8129 0 37.3726V37.9032C0 41.3419 1.79809 44.3234 4.41429 45.7952V50H26.4858V43.5484H28.7672C29.1093 45.3863 30.5947 46.7742 32.3715 46.7742C34.1482 46.7742 35.6336 45.3863 35.9757 43.5484H39.6683C42.6222 43.5484 45.1192 41.2298 45.6048 38.0363L45.7475 37.0968H43.0224ZM33.8429 37.0968V29.0323H39.7286V37.0968H33.8429ZM27.9572 16.129H38.2572V27.4194H33.8429V24.1935H27.9572V16.129ZM32.3715 25.8065V37.0968H25.0143V25.8065H32.3715ZM23.5429 31.1903V37.0968H23.3053L20.5471 29.5387L19.1808 30.1379L21.7205 37.0968H18.9962L19.1389 38.0363C19.3339 39.3186 19.857 40.4565 20.6 41.3629V48.3871H16.9215V46.7742C18.1383 46.7742 19.1286 45.6887 19.1286 44.3548C19.1286 43.021 18.1383 41.9355 16.9215 41.9355V25.2637C19.7267 26.2411 22.0994 28.3508 23.5429 31.1903ZM14.9196 22.5806L15.3735 24.0742L13.2429 27.5782L11.1115 24.0742L11.5662 22.5806H14.9196ZM15.45 30.7653L14.1537 28.9887L15.45 26.8573V30.7653ZM11.0357 30.7653V26.8573L12.3321 28.9887L11.0357 30.7653ZM11.0357 33.3468L13.2429 30.3226L15.45 33.3468V40.4645C15.219 40.375 14.9725 40.3226 14.7143 40.3226H13.8528C13.2635 40.3226 12.7087 40.5742 12.2916 41.0315L11.5368 41.8589L11.0357 41.7363V33.3468ZM12.5072 43.0758L13.3319 42.1718C13.471 42.0194 13.6564 41.9355 13.8528 41.9355H14.7143C15.1197 41.9355 15.45 42.2976 15.45 42.7419V43.5484H16.9215C17.3268 43.5484 17.6572 43.9105 17.6572 44.3548C17.6572 44.7992 17.3268 45.1613 16.9215 45.1613H12.5072V43.0758ZM15.45 46.7742V48.3871H11.0357V46.7742H15.45ZM19.1286 18.5484V15.3226C19.9401 15.3226 20.6 16.046 20.6 16.9355C20.6 17.825 19.9401 18.5484 19.1286 18.5484ZM20.6 14.1581C20.1652 13.8806 19.6671 13.7097 19.1286 13.7097V12.9032H20.6V14.1581ZM20.4499 8.06452H15.45V1.98226C17.9772 2.84113 19.9158 5.13871 20.4499 8.06452ZM13.9786 1.65323V8.06452H12.5072V1.65323C12.7492 1.62742 12.9942 1.6129 13.2429 1.6129C13.4915 1.6129 13.7365 1.62742 13.9786 1.65323ZM11.0357 1.98226V8.06452H6.03581C6.56994 5.13871 8.50855 2.84113 11.0357 1.98226ZM4.41356 9.67742H4.41429H22.0715V11.2903H4.41429L4.41356 9.67742ZM7.35715 12.9032V13.7097C6.81861 13.7097 6.32053 13.8806 5.88572 14.1581V12.9032H7.35715ZM5.88572 16.9355C5.88572 16.046 6.54566 15.3226 7.35715 15.3226V18.5484C6.54566 18.5484 5.88572 17.825 5.88572 16.9355ZM8.82859 18.5484V12.9032H17.6572V18.5484C17.6572 19.8823 16.6669 20.9677 15.45 20.9677H11.0357C9.81886 20.9677 8.82859 19.8823 8.82859 18.5484ZM1.47143 37.9032V37.3726C1.47143 31.7597 4.75566 26.9145 9.5643 25.2524V41.379L8.76605 41.1847C7.07023 40.771 5.88572 39.1524 5.88572 37.2476V33.871H4.41429V37.2476C4.41429 39.9137 6.0726 42.1798 8.44675 42.7581L11.0357 43.3887V45.1613H8.09287C4.44225 45.1613 1.47143 41.9048 1.47143 37.9032ZM5.88572 46.4306C6.58833 46.6492 7.32699 46.7742 8.09287 46.7742H9.5643V48.3871H5.88572V46.4306ZM22.0715 48.3871V42.6726C22.9418 43.221 23.9475 43.5339 25.0143 43.546V48.3871H22.0715ZM32.3715 45.1613C31.1546 45.1613 30.1643 44.0758 30.1643 42.7419C30.1643 42.2976 30.4947 41.9355 30.9 41.9355H33.8429C34.2483 41.9355 34.5786 42.2976 34.5786 42.7419C34.5786 44.0758 33.5884 45.1613 32.3715 45.1613ZM39.6676 41.9355H35.9139C35.6094 40.9992 34.8001 40.3226 33.8422 40.3226H30.8993C29.9414 40.3226 29.1321 40.9992 28.8275 41.9355H25.0739C23.1434 41.9355 21.4719 40.625 20.8178 38.7097H43.9222C43.2696 40.625 41.5988 41.9355 39.6676 41.9355Z" fill="#1D69C9"/>
<path d="M35.3142 17.7419H36.7856V19.3549H35.3142V17.7419Z" fill="white"/>
<path d="M32.3713 17.7419H33.8428V19.3549H32.3713V17.7419Z" fill="white"/>
<path d="M29.4287 17.7419H30.9001V19.3549H29.4287V17.7419Z" fill="white"/>
<path d="M35.3142 20.9677H36.7856V22.5806H35.3142V20.9677Z" fill="white"/>
<path d="M29.4287 20.9677H30.9001V22.5806H29.4287V20.9677Z" fill="white"/>
<path d="M32.3713 20.9677H33.8428V22.5806H32.3713V20.9677Z" fill="white"/>
<path d="M35.3142 24.1935H36.7856V25.8064H35.3142V24.1935Z" fill="white"/>
<path d="M26.4858 27.4193H27.9573V35.4838H26.4858V27.4193Z" fill="white"/>
<path d="M29.4287 27.4193H30.9001V35.4838H29.4287V27.4193Z" fill="white"/>
<path d="M35.3142 30.645H38.2571V32.258H35.3142V30.645Z" fill="white"/>
<path d="M35.3142 33.871H38.2571V35.4838H35.3142V33.871Z" fill="white"/>
</svg>
