<svg width="42" height="42" viewBox="0 0 42 42" fill="none" xmlns="http://www.w3.org/2000/svg">
<path d="M41.087 0H6.3913H0.913043C0.409043 0 0 0.409043 0 0.913043V6.3913V41.087C0 41.591 0.409043 42 0.913043 42H6.3913C6.8953 42 7.30435 41.591 7.30435 41.087V40.1739H33.7826C34.0246 40.1739 34.2574 40.078 34.4281 39.9064L39.9064 34.4281C40.078 34.2574 40.1739 34.0246 40.1739 33.7826V7.30435H41.087C41.591 7.30435 42 6.8953 42 6.3913V0.913043C42 0.409043 41.591 0 41.087 0ZM5.47826 40.1739H1.82609V7.30435H5.47826V40.1739ZM5.47826 5.47826H1.82609V1.82609H5.47826V5.47826ZM38.3478 33.4046L33.4046 38.3478H32.8696V32.8696H38.3478V33.4046ZM38.3478 31.0435H31.9565C31.4525 31.0435 31.0435 31.4525 31.0435 31.9565V38.3478H7.30435V21.913H11.8696C12.3736 21.913 12.7826 21.504 12.7826 21C12.7826 20.496 12.3736 20.087 11.8696 20.087H7.30435V7.30435H20.087V11.8696C20.087 12.3736 20.496 12.7826 21 12.7826C21.504 12.7826 21.913 12.3736 21.913 11.8696V7.30435H38.3478V31.0435ZM40.1739 5.47826H7.30435V1.82609H40.1739V5.47826Z" fill="black"/>
<path d="M21.0008 16.4348C20.4968 16.4348 20.0877 16.8439 20.0877 17.3479V20.087H17.3486C16.8446 20.087 16.4355 20.496 16.4355 21C16.4355 21.504 16.8446 21.9131 17.3486 21.9131H21.0008C21.5048 21.9131 21.9138 21.504 21.9138 21V17.3479C21.9138 16.8439 21.5048 16.4348 21.0008 16.4348Z" fill="black"/>
</svg>
