<svg width="23" height="23" viewBox="0 0 23 23" fill="none" xmlns="http://www.w3.org/2000/svg">
<path d="M20.9785 2.74023H2.02148C0.90823 2.74023 0 3.64748 0 4.76172V18.2383C0 19.3487 0.904188 20.2598 2.02148 20.2598H20.9785C22.089 20.2598 23 19.3556 23 18.2383V4.76172C23 3.65125 22.0958 2.74023 20.9785 2.74023ZM20.6994 4.08789L11.5429 13.2445L2.30714 4.08789H20.6994ZM1.34766 17.9592V5.03435L7.83792 11.469L1.34766 17.9592ZM2.30058 18.9121L8.79494 12.4178L11.0705 14.6738C11.334 14.935 11.7591 14.9341 12.0214 14.6718L14.2402 12.4529L20.6994 18.9121H2.30058ZM21.6523 17.9592L15.1932 11.5L21.6523 5.04077V17.9592Z" fill="#1D69C9"/>
</svg>
