<svg width="28" height="28" viewBox="0 0 28 28" fill="none" xmlns="http://www.w3.org/2000/svg">
<g clip-path="url(#clip0)">
<path d="M18.5926 25.6667C17.9147 25.6667 17.2426 25.5469 16.5854 25.3081C13.6899 24.2563 11.0022 22.5431 8.81289 20.3538C6.62356 18.1646 4.91041 15.4769 3.85861 12.5814C3.52061 11.6508 3.42087 10.6903 3.56224 9.72631C3.69468 8.82335 4.04444 7.94676 4.57377 7.19128C5.10543 6.43248 5.81423 5.80136 6.62352 5.36616C7.48654 4.90209 8.4285 4.66675 9.42334 4.66675C9.73275 4.66675 10.0002 4.88293 10.065 5.18545L11.095 9.99224C11.1417 10.2099 11.0748 10.4364 10.9174 10.5938L9.15736 12.3538C10.8177 15.6548 13.5118 18.349 16.8129 20.0093L18.5729 18.2493C18.7303 18.0919 18.9568 18.0251 19.1744 18.0716L23.9812 19.1016C24.2838 19.1665 24.4999 19.4339 24.4999 19.7433C24.4999 20.7381 24.2646 21.6802 23.8004 22.5432C23.3653 23.3525 22.7341 24.0613 21.9753 24.5929C21.2199 25.1222 20.3433 25.472 19.4403 25.6045C19.1573 25.646 18.8744 25.6667 18.5926 25.6667ZM8.89902 6.0079C7.58678 6.15277 6.42206 6.84057 5.64862 7.94446C4.77888 9.18575 4.57606 10.7125 5.09218 12.1333C7.11434 17.7 11.4668 22.0524 17.0334 24.0745C18.4542 24.5907 19.9809 24.3879 21.2223 23.5181C22.3262 22.7447 23.014 21.58 23.1588 20.2677L19.2485 19.4298L17.4104 21.2679C17.2148 21.4635 16.9177 21.5154 16.6674 21.3978C12.7633 19.5637 9.60306 16.4035 7.76892 12.4993C7.65133 12.249 7.70326 11.9518 7.89885 11.7563L9.73693 9.91821L8.89902 6.0079Z" fill="#1D69C9"/>
</g>
<defs>
<clipPath id="clip0">
<rect width="21" height="21" fill="white" transform="translate(3.5 4.66675)"/>
</clipPath>
</defs>
</svg>
