<svg width="60" height="60" viewBox="0 0 60 60" fill="none" xmlns="http://www.w3.org/2000/svg">
<path d="M47.5704 7.86111H42.1423V5.43276C42.1423 4.6471 41.2852 4.29002 40.4996 4.29002H36.2857C35.2858 1.43309 32.786 0.00462453 29.929 0.00462453C27.1035 -0.101598 24.5336 1.63091 23.5724 4.29002H19.4298C18.6442 4.29002 17.8585 4.6471 17.8585 5.43276V7.86111H12.4302C9.2135 7.89542 6.58186 10.433 6.43066 13.6463V54.5717C6.43066 57.7144 9.28759 59.9998 12.4302 59.9998H47.5704C50.7131 59.9998 53.57 57.7144 53.57 54.5717V13.6465C53.4188 10.433 50.7871 7.89542 47.5704 7.86111ZM20.7153 7.14694H24.6436C25.3293 7.06328 25.8801 6.5416 26.0007 5.86134C26.4237 4.01933 28.0397 2.69709 29.929 2.64733C31.8008 2.70407 33.3925 4.03041 33.7858 5.86134C33.9139 6.56511 34.5011 7.09349 35.2143 7.14694H39.2855V12.8608H20.7153V7.14694ZM50.7131 54.5718C50.7131 56.1432 49.1417 57.1431 47.5704 57.1431H12.4302C10.8589 57.1431 9.28759 56.1432 9.28759 54.5718V13.6465C9.43332 12.0109 10.7884 10.7481 12.4302 10.7182H17.8584V14.3608C17.9338 15.1611 18.627 15.7597 19.4297 15.7179H40.4994C41.317 15.7626 42.0318 15.1721 42.1421 14.3608V10.718H47.5703C49.212 10.7481 50.5672 12.0107 50.7129 13.6463V54.5718H50.7131Z" fill="#313336"/>
<path d="M24.5012 31.9309C23.9654 31.3662 23.076 31.3343 22.5013 31.8596L17.9302 36.2163L16.0018 34.2164C15.466 33.6517 14.5766 33.62 14.0019 34.1451C13.4486 34.7247 13.4486 35.6367 14.0019 36.2163L16.9301 39.2161C17.1836 39.4999 17.5497 39.6568 17.93 39.6447C18.3068 39.6393 18.6662 39.4853 18.9299 39.2161L24.5009 33.9308C25.0532 33.4242 25.0901 32.5657 24.5833 32.0135C24.5574 31.9847 24.5299 31.9572 24.5012 31.9309Z" fill="#313336"/>
<path d="M44.9993 35.002H28.572C27.7831 35.002 27.1436 35.6415 27.1436 36.4304C27.1436 37.2194 27.7831 37.8589 28.572 37.8589H44.9993C45.7882 37.8589 46.4278 37.2194 46.4278 36.4304C46.4278 35.6415 45.7882 35.002 44.9993 35.002Z" fill="#313336"/>
<path d="M24.5012 20.5032C23.9654 19.9385 23.076 19.9066 22.5013 20.4318L17.9302 24.7886L16.0018 22.7887C15.466 22.2239 14.5766 22.1921 14.0019 22.7173C13.4486 23.297 13.4486 24.209 14.0019 24.7886L16.9301 27.7884C17.1836 28.0722 17.5497 28.2291 17.93 28.217C18.3068 28.2116 18.6662 28.0576 18.9299 27.7884L24.5009 22.5031C25.0532 21.9965 25.0901 21.1379 24.5833 20.5858C24.5574 20.5569 24.5299 20.5294 24.5012 20.5032Z" fill="#313336"/>
<path d="M44.9993 23.5742H28.572C27.7831 23.5742 27.1436 24.2137 27.1436 25.0027C27.1436 25.7916 27.7831 26.4311 28.572 26.4311H44.9993C45.7882 26.4311 46.4278 25.7916 46.4278 25.0027C46.4278 24.2137 45.7882 23.5742 44.9993 23.5742Z" fill="#313336"/>
<path d="M24.5012 43.3584C23.9654 42.7936 23.076 42.7619 22.5013 43.287L17.9302 47.6438L16.0018 45.6439C15.466 45.0791 14.5766 45.0474 14.0019 45.5725C13.4486 46.1521 13.4486 47.0641 14.0019 47.6438L16.9301 50.6436C17.1836 50.9274 17.5497 51.0843 17.93 51.0721C18.3068 51.0668 18.6662 50.9127 18.9299 50.6436L24.5009 45.3583C25.0532 44.8516 25.0901 43.9931 24.5833 43.4409C24.5574 43.4122 24.5299 43.3848 24.5012 43.3584Z" fill="#313336"/>
<path d="M44.9993 46.4297H28.572C27.7831 46.4297 27.1436 47.0692 27.1436 47.8582C27.1436 48.6471 27.7831 49.2866 28.572 49.2866H44.9993C45.7882 49.2866 46.4278 48.6471 46.4278 47.8582C46.4278 47.0692 45.7882 46.4297 44.9993 46.4297Z" fill="#313336"/>
</svg>
