<svg width="24" height="24" viewBox="0 0 24 24" fill="none" xmlns="http://www.w3.org/2000/svg">
<path d="M12 0C6.95986 0 2.85938 4.10048 2.85938 9.14062C2.85938 12.3943 3.84914 13.6991 8.60536 19.9692C9.43097 21.0576 10.3668 22.2912 11.4375 23.7188C11.5703 23.8958 11.7787 24 12 24C12.2214 24 12.4298 23.8958 12.5625 23.7187C13.627 22.2988 14.5587 21.0699 15.3808 19.9856C20.1485 13.6973 21.1406 12.3887 21.1406 9.14062C21.1406 4.10048 17.0401 0 12 0ZM14.2603 19.136C13.5851 20.0265 12.8361 21.0145 11.9999 22.1261C11.1579 21.0074 10.4047 20.0143 9.72572 19.1193C5.09925 13.0203 4.26562 11.9213 4.26562 9.14062C4.26562 4.87589 7.73527 1.40625 12 1.40625C16.2647 1.40625 19.7344 4.87589 19.7344 9.14062C19.7344 11.9159 18.8986 13.0182 14.2603 19.136Z" fill="#1D69C9"/>
<path d="M12 4.21875C9.28608 4.21875 7.07812 6.4267 7.07812 9.14062C7.07812 11.8545 9.28608 14.0625 12 14.0625C14.7139 14.0625 16.9219 11.8545 16.9219 9.14062C16.9219 6.4267 14.7139 4.21875 12 4.21875ZM12 12.6562C10.0615 12.6562 8.48438 11.0791 8.48438 9.14062C8.48438 7.20211 10.0615 5.625 12 5.625C13.9385 5.625 15.5156 7.20211 15.5156 9.14062C15.5156 11.0791 13.9385 12.6562 12 12.6562Z" fill="#1D69C9"/>
</svg>
