<svg width="20" height="20" viewBox="0 0 20 20" fill="none" xmlns="http://www.w3.org/2000/svg">
<path d="M3.125 10.625L15.5934 10.625L10.8191 15.1725C10.5691 15.4106 10.5594 15.8062 10.7975 16.0562C11.0353 16.3059 11.4309 16.3159 11.6812 16.0778L17.1338 10.884C17.3697 10.6478 17.5 10.334 17.5 9.99997C17.5 9.66622 17.3697 9.35216 17.1228 9.10559L11.6809 3.92247C11.56 3.80715 11.405 3.74997 11.25 3.74997C11.085 3.74997 10.92 3.81497 10.7972 3.94403C10.5591 4.19403 10.5688 4.58934 10.8188 4.82747L15.6131 9.37497L3.125 9.37497C2.78 9.37497 2.5 9.65497 2.5 9.99997C2.5 10.345 2.78 10.625 3.125 10.625Z" fill="#1D69C9"/>
</svg>
