<?xml version="1.0" encoding="utf-8"?><svg width="28" height="28" xmlns="http://www.w3.org/2000/svg" viewBox="0 0 28 28"><g clip-path="url(#lclip0)"><path d="M18.593 25.667a5.85 5.85 0 01-2.008-.359 21.404 21.404 0 01-7.772-4.954 21.402 21.402 0 01-4.954-7.773 5.809 5.809 0 01-.297-2.855 5.946 5.946 0 013.062-4.36 5.848 5.848 0 012.8-.7c.309 0 .576.217.641.52l1.03 4.806a.656.656 0 01-.178.602l-1.76 1.76a17.274 17.274 0 007.656 7.655l1.76-1.76a.657.657 0 01.601-.177l4.807 1.03a.656.656 0 01.519.641c0 .995-.235 1.937-.7 2.8a5.968 5.968 0 01-4.36 3.062 5.839 5.839 0 01-.847.062zM8.899 6.007a4.545 4.545 0 00-3.25 1.937 4.521 4.521 0 00-.557 4.19 19.904 19.904 0 0011.941 11.94 4.521 4.521 0 004.19-.556 4.545 4.545 0 001.936-3.25l-3.91-.838-1.839 1.838a.656.656 0 01-.743.13 18.581 18.581 0 01-8.898-8.899.656.656 0 01.13-.743l1.838-1.838-.838-3.91z"/></g><defs><clipPath id="lclip0"><path transform="translate(3.5 4.667)" d="M0 0h21v21H0z"/></clipPath></defs></svg>