<?xml version="1.0" encoding="utf-8"?><svg width="60" height="60" xmlns="http://www.w3.org/2000/svg" viewBox="0 0 60 60"><path d="M47.57 7.861h-5.428V5.433c0-.786-.857-1.143-1.642-1.143h-4.214c-1-2.857-3.5-4.285-6.357-4.285a6.5 6.5 0 00-6.357 4.285H19.43c-.786 0-1.572.357-1.572 1.143V7.86H12.43a6.071 6.071 0 00-6 5.785v40.926c0 3.142 2.858 5.428 6 5.428h35.14c3.143 0 6-2.286 6-5.428V13.646a6.071 6.071 0 00-6-5.785zm-26.855-.714h3.929A1.572 1.572 0 0026 5.86a4.143 4.143 0 013.928-3.214 4.07 4.07 0 013.857 3.214 1.571 1.571 0 001.428 1.286h4.072v5.714h-18.57V7.147zm29.998 47.425c0 1.571-1.571 2.571-3.143 2.571H12.43c-1.571 0-3.142-1-3.142-2.571V13.646a3.214 3.214 0 013.142-2.928h5.428v3.643a1.5 1.5 0 001.572 1.357H40.5a1.571 1.571 0 001.642-1.357v-3.643h5.428a3.214 3.214 0 013.143 2.928v40.926z"/><path d="M24.501 31.93a1.428 1.428 0 00-2-.07l-4.57 4.356-1.93-2a1.429 1.429 0 00-2-.07 1.5 1.5 0 000 2.07l2.93 3c.253.284.619.44.999.429.377-.006.736-.16 1-.429l5.57-5.285a1.357 1.357 0 00.001-2zM45 35.002H28.571a1.428 1.428 0 100 2.857h16.427a1.428 1.428 0 100-2.857zM24.501 20.503a1.428 1.428 0 00-2-.071l-4.57 4.357-1.93-2a1.428 1.428 0 00-2-.072 1.5 1.5 0 000 2.072l2.93 3c.253.283.619.44.999.428.377-.005.736-.16 1-.429l5.57-5.285a1.357 1.357 0 00.001-2zM45 23.574H28.571a1.428 1.428 0 000 2.857h16.427a1.428 1.428 0 100-2.857zM24.501 43.358a1.428 1.428 0 00-2-.071l-4.57 4.357-1.93-2a1.428 1.428 0 00-2-.072 1.5 1.5 0 000 2.072l2.93 3c.253.283.619.44.999.428.377-.005.736-.16 1-.428l5.57-5.286a1.357 1.357 0 00.001-2zM45 46.43H28.571a1.428 1.428 0 000 2.857h16.427a1.428 1.428 0 100-2.857z"/></svg>