<?xml version="1.0" encoding="utf-8"?><svg width="48" height="48" xmlns="http://www.w3.org/2000/svg" viewBox="0 0 48 48"><g clip-path="url(#gclip0)"><path d="M47.2 46.4h-3.25c.035-.262.05-.53.05-.8 0-2.257-1.3-4.18-3.2-5.07V13.6c0-.48-.32-.8-.8-.8H28V.8c0-.48-.32-.799-.8-.799H5.6c-.48 0-.8.32-.8.8v45.6h-4c-.48 0-.8.32-.8.8 0 .48.32.8.8.8h46.4c.48 0 .8-.32.8-.8 0-.48-.32-.8-.8-.8zm-8-6.343a5.405 5.405 0 00-2.556.239C36.504 40.11 36.28 40 36 40c-.48 0-.8.32-.8.8v.245a5.605 5.605 0 00-.96.875c-.663-.829-1.517-1.428-2.482-1.72a.807.807 0 00-.558-.2.945.945 0 00-.25.032 4.74 4.74 0 00-.55-.032c-.501 0-1.066.065-1.523.25l-.169.06a4.988 4.988 0 00-1.88-.95l-.022-.006c-.06-.015-.12-.03-.18-.043l-.146-.029-.064-.012a4.635 4.635 0 00-.369-.049l-.105-.008c-.038-.003-.076-.006-.114-.007a4.69 4.69 0 00-.403-.003l-.114.006-.046.002a4.701 4.701 0 00-2.065.619V14.4h16v25.656zM6.4 1.601h20v11.2h-4c-.48 0-.8.32-.8.8v24.88a5.796 5.796 0 00-1.53-1.096l-.054-.027a5.54 5.54 0 00-1.842-.526l-.027-.003a5.505 5.505 0 00-.547-.028c-1.19 0-2.294.392-3.2 1.05v-.25c0-.48-.32-.8-.8-.8-.48 0-.8.32-.8.8v1.6c0 .12.02.23.057.328a5.767 5.767 0 00-.777 2.152 5.434 5.434 0 00-2.48.932v-.212c0-.48-.32-.8-.8-.8-.48 0-.8.32-.8.8v1.6c0 .093.013.18.036.26a5.579 5.579 0 00-.778 2.14H6.4v-44.8zm6.036 41.617l.048-.004a3.77 3.77 0 01.316-.013c.48 0 .8-.32.8-.8 0-2.24 1.76-4 4-4 2 0 3.68 1.44 3.92 3.44a.868.868 0 00.392.535l.038.023c.03.016.06.03.092.044l.004.001a.888.888 0 00.114.037.461.461 0 00.16.02.773.773 0 00.64-.34l.08-.08c.64-.8 1.52-1.28 2.56-1.28.54 0 1.08.151 1.565.434-.954.898-1.495 2.067-1.558 3.319a4.706 4.706 0 00.27 1.847H8.879c.374-1.722 1.8-3.024 3.556-3.184zM27.764 46.4c-.305-.517-.484-1.128-.484-1.68 0-.885.349-1.682.948-2.264.115-.107.237-.205.366-.293a.802.802 0 00.366-.083c1.76-.96 3.84-.08 4.48 1.68.08.24.32.48.72.48.076 0 .16-.024.244-.067.201-.033.36-.18.476-.413a3.68 3.68 0 011.374-1.554.734.734 0 00.32-.181A4.058 4.058 0 0138.4 41.6c2.24 0 4 1.76 4 4 0 .24 0 .56-.08.8H27.764z"/><path d="M26.4 20.8c-.48 0-.8.32-.8.8v1.6c0 .48.32.8.8.8.48 0 .8-.32.8-.8v-1.6c0-.48-.32-.8-.8-.8zM26.4 35.2c-.48 0-.8.32-.8.8v1.6c0 .48.32.8.8.8.48 0 .8-.32.8-.8V36c0-.48-.32-.8-.8-.8zM26.4 25.6c-.48 0-.8.32-.8.8V28c0 .48.32.8.8.8.48 0 .8-.32.8-.8v-1.6c0-.48-.32-.8-.8-.8zM26.4 30.4c-.48 0-.8.32-.8.8v1.6c0 .48.32.8.8.8.48 0 .8-.32.8-.8v-1.6c0-.48-.32-.8-.8-.8zM26.4 16c-.48 0-.8.32-.8.8v1.6c0 .48.32.8.8.8.48 0 .8-.32.8-.8v-1.6c0-.48-.32-.8-.8-.8zM31.198 24c.48 0 .8-.32.8-.8v-1.6c0-.48-.32-.8-.8-.8-.48 0-.8.32-.8.8v1.6c0 .48.32.8.8.8zM31.198 19.2c.48 0 .8-.32.8-.8v-1.6c0-.48-.32-.8-.8-.8-.48 0-.8.32-.8.8v1.6c0 .48.32.8.8.8zM31.198 28.8c.48 0 .8-.32.8-.8v-1.6c0-.48-.32-.8-.8-.8-.48 0-.8.32-.8.8V28c0 .48.32.8.8.8zM31.198 33.6c.48 0 .8-.32.8-.8v-1.6c0-.48-.32-.8-.8-.8-.48 0-.8.32-.8.8v1.6c0 .48.32.8.8.8zM31.198 38.4c.48 0 .8-.32.8-.8V36c0-.48-.32-.8-.8-.8-.48 0-.8.32-.8.8v1.6c0 .48.32.8.8.8zM36 28.8c.48 0 .8-.32.8-.8v-1.6c0-.48-.32-.8-.8-.8-.48 0-.8.32-.8.8V28c0 .48.32.8.8.8zM36 24c.48 0 .8-.32.8-.8v-1.6c0-.48-.32-.8-.8-.8-.48 0-.8.32-.8.8v1.6c0 .48.32.8.8.8zM36 38.4c.48 0 .8-.32.8-.8V36c0-.48-.32-.8-.8-.8-.48 0-.8.32-.8.8v1.6c0 .48.32.8.8.8zM36 33.6c.48 0 .8-.32.8-.8v-1.6c0-.48-.32-.8-.8-.8-.48 0-.8.32-.8.8v1.6c0 .48.32.8.8.8zM36 19.2c.48 0 .8-.32.8-.8v-1.6c0-.48-.32-.8-.8-.8-.48 0-.8.32-.8.8v1.6c0 .48.32.8.8.8zM8.8 30.4c.48 0 .8-.32.8-.8V28c0-.48-.32-.8-.8-.8-.48 0-.8.32-.8.8v1.6c0 .48.32.8.8.8zM8.8 35.2c.48 0 .8-.32.8-.8v-1.6c0-.48-.32-.8-.8-.8-.48 0-.8.32-.8.8v1.6c0 .48.32.8.8.8zM8.8 40c.48 0 .8-.32.8-.8v-1.6c0-.48-.32-.8-.8-.8-.48 0-.8.32-.8.8v1.6c0 .48.32.8.8.8zM8.8 6.4c.48 0 .8-.32.8-.8V4c0-.48-.32-.8-.8-.8-.48 0-.8.32-.8.8v1.6c0 .48.32.8.8.8zM8.8 11.2c.48 0 .8-.32.8-.8V8.8c0-.48-.32-.8-.8-.8-.48 0-.8.32-.8.8v1.6c0 .48.32.8.8.8zM8.8 16c.48 0 .8-.32.8-.8v-1.6c0-.48-.32-.8-.8-.8-.48 0-.8.32-.8.8v1.6c0 .48.32.8.8.8zM8.8 20.8c.48 0 .8-.32.8-.8v-1.6c0-.48-.32-.8-.8-.8-.48 0-.8.32-.8.8V20c0 .48.32.8.8.8zM8.8 25.6c.48 0 .8-.32.8-.8v-1.6c0-.48-.32-.8-.8-.8-.48 0-.8.32-.8.8v1.6c0 .48.32.8.8.8zM13.6 11.2c.48 0 .8-.32.8-.8V8.8c0-.48-.32-.8-.8-.8-.48 0-.8.32-.8.8v1.6c0 .48.32.8.8.8zM13.6 6.4c.48 0 .8-.32.8-.8V4c0-.48-.32-.8-.8-.8-.48 0-.8.32-.8.8v1.6c0 .48.32.8.8.8zM13.6 20.8c.48 0 .8-.32.8-.8v-1.6c0-.48-.32-.8-.8-.8-.48 0-.8.32-.8.8V20c0 .48.32.8.8.8zM13.6 16c.48 0 .8-.32.8-.8v-1.6c0-.48-.32-.8-.8-.8-.48 0-.8.32-.8.8v1.6c0 .48.32.8.8.8zM13.6 25.6c.48 0 .8-.32.8-.8v-1.6c0-.48-.32-.8-.8-.8-.48 0-.8.32-.8.8v1.6c0 .48.32.8.8.8zM13.6 30.4c.48 0 .8-.32.8-.8V28c0-.48-.32-.8-.8-.8-.48 0-.8.32-.8.8v1.6c0 .48.32.8.8.8zM13.6 35.2c.48 0 .8-.32.8-.8v-1.6c0-.48-.32-.8-.8-.8-.48 0-.8.32-.8.8v1.6c0 .48.32.8.8.8zM18.4 16c.48 0 .8-.32.8-.8v-1.6c0-.48-.32-.8-.8-.8-.48 0-.8.32-.8.8v1.6c0 .48.32.8.8.8zM18.4 11.2c.48 0 .8-.32.8-.8V8.8c0-.48-.32-.8-.8-.8-.48 0-.8.32-.8.8v1.6c0 .48.32.8.8.8zM18.4 6.4c.48 0 .8-.32.8-.8V4c0-.48-.32-.8-.8-.8-.48 0-.8.32-.8.8v1.6c0 .48.32.8.8.8zM18.4 35.2c.48 0 .8-.32.8-.8v-1.6c0-.48-.32-.8-.8-.8-.48 0-.8.32-.8.8v1.6c0 .48.32.8.8.8zM18.4 30.4c.48 0 .8-.32.8-.8V28c0-.48-.32-.8-.8-.8-.48 0-.8.32-.8.8v1.6c0 .48.32.8.8.8zM18.4 25.6c.48 0 .8-.32.8-.8v-1.6c0-.48-.32-.8-.8-.8-.48 0-.8.32-.8.8v1.6c0 .48.32.8.8.8zM18.4 20.8c.48 0 .8-.32.8-.8v-1.6c0-.48-.32-.8-.8-.8-.48 0-.8.32-.8.8V20c0 .48.32.8.8.8zM23.2 11.2c.48 0 .8-.32.8-.8V8.8c0-.48-.32-.8-.8-.8-.48 0-.8.32-.8.8v1.6c0 .48.32.8.8.8zM23.2 6.4c.48 0 .8-.32.8-.8V4c0-.48-.32-.8-.8-.8-.48 0-.8.32-.8.8v1.6c0 .48.32.8.8.8z"/></g><defs><clipPath id="gclip0"><path d="M0 0h48v48H0z"/></clipPath></defs></svg>