<?xml version="1.0" encoding="utf-8"?><svg width="21" height="21" xmlns="http://www.w3.org/2000/svg" viewBox="0 0 21 21"><g clip-path="url(#pclip0)"><path d="M9.248 0C4.148 0 0 4.149 0 9.248c0 5.1 4.149 9.248 9.248 9.248 5.1 0 9.248-4.149 9.248-9.248 0-5.1-4.149-9.248-9.248-9.248zm0 16.789c-4.158 0-7.54-3.383-7.54-7.541s3.382-7.54 7.54-7.54c4.158 0 7.54 3.382 7.54 7.54 0 4.158-3.382 7.54-7.54 7.54z"/><path d="M20.75 19.543l-4.895-4.894a.853.853 0 10-1.207 1.207l4.895 4.894a.85.85 0 001.207 0 .853.853 0 000-1.207z"/></g><defs><clipPath id="pclip0"><path d="M0 0h21v21H0z"/></clipPath></defs></svg>