<?xml version="1.0" encoding="utf-8"?><svg width="23" height="23" xmlns="http://www.w3.org/2000/svg" viewBox="0 0 23 23"><path d="M20.979 2.74H2.02A2.025 2.025 0 000 4.762v13.476c0 1.11.904 2.022 2.021 2.022h18.957c1.111 0 2.022-.904 2.022-2.022V4.762c0-1.11-.904-2.022-2.021-2.022zm-.28 1.348l-9.156 9.157-9.236-9.157H20.7zM1.348 17.959V5.034l6.49 6.435-6.49 6.49zm.953.953l6.494-6.494 2.275 2.256c.264.261.69.26.951-.002l2.22-2.22 6.458 6.46H2.301zm19.351-.953L15.193 11.5l6.46-6.46v12.92z"/></svg>