<?xml version="1.0" encoding="utf-8"?><svg width="42" height="42" xmlns="http://www.w3.org/2000/svg" viewBox="0 0 42 42"><path d="M41.087 0H.913A.913.913 0 000 .913v40.174c0 .504.409.913.913.913h5.478a.913.913 0 00.913-.913v-.913h26.479a.91.91 0 00.645-.268l5.478-5.478a.91.91 0 00.268-.645V7.304h.913A.913.913 0 0042 6.391V.913A.913.913 0 0041.087 0zM5.478 40.174H1.826V7.304h3.652v32.87zm0-34.696H1.826V1.826h3.652v3.652zm32.87 27.927l-4.943 4.943h-.535V32.87h5.478v.535zm0-2.361h-6.392a.913.913 0 00-.912.912v6.392H7.304V21.913h4.566a.913.913 0 000-1.826H7.304V7.304h12.783v4.566a.913.913 0 001.826 0V7.304h16.435v23.74zm1.826-25.566H7.304V1.826h32.87v3.652z"/><path d="M21 16.435a.913.913 0 00-.912.913v2.739h-2.74a.913.913 0 000 1.826h3.653c.504 0 .913-.409.913-.913v-3.652a.913.913 0 00-.913-.913z"/></svg>