<?xml version="1.0" encoding="utf-8"?><svg width="13" height="13" xmlns="http://www.w3.org/2000/svg" viewBox="0 0 13 13"><g clip-path="url(#bclip0)"><path d="M5.309 6.511L.247 1.45A.841.841 0 111.438.26L6.5 5.32 11.562.258a.841.841 0 111.19 1.191L7.692 6.511l5.062 5.062a.84.84 0 11-1.191 1.191L6.5 7.702l-5.062 5.062a.84.84 0 01-1.19 0 .841.841 0 010-1.19L5.308 6.51z"/></g><defs><linearGradient id="bpaint0_linear" x1="13" y1="6.511" x2="0" y2="6.511" gradientUnits="userSpaceOnUse"><stop stop-color="#1C60C7"/><stop offset="1" stop-color="#3380EB"/></linearGradient><clipPath id="bclip0"><path transform="matrix(-1 0 0 1 13 0)" d="M0 0h13v13H0z"/></clipPath></defs></svg>