<?xml version="1.0" encoding="utf-8"?><svg width="46" height="50" xmlns="http://www.w3.org/2000/svg" viewBox="0 0 46 50"><path d="M43.022 37.097l2.54-6.958-1.367-.6-2.757 7.558H41.2v-9.678H39.73V14.516h-2.943V11.29h-1.472v3.226h-1.471V9.677H32.37v4.84H30.9V11.29h-1.471v3.226h-2.943v9.678h-2.943v4.136c-1.734-2.334-4.101-4.034-6.787-4.813l-.334-1.098c1.073-.325 1.954-1.156 2.395-2.258h.312c1.623 0 2.942-1.447 2.942-3.226v-4.032c.812 0 1.472-.723 1.472-1.613V9.677c0-.89-.66-1.612-1.471-1.612h-.129C21.24 3.419 17.615 0 13.243 0c-4.372 0-7.997 3.42-8.7 8.065h-.129c-.811 0-1.471.723-1.471 1.612v1.613c0 .89.66 1.613 1.471 1.613v4.033c0 1.779 1.32 3.225 2.943 3.225h.312c.442 1.102 1.322 1.934 2.395 2.258l-.334 1.098C3.98 25.179 0 30.813 0 37.373v.53c0 3.439 1.798 6.42 4.414 7.892V50h22.072v-6.452h2.281c.342 1.838 1.828 3.226 3.604 3.226 1.777 0 3.263-1.388 3.605-3.226h3.692c2.954 0 5.451-2.318 5.937-5.512l.143-.94h-2.726zm-9.18 0v-8.065h5.887v8.065h-5.886zm-5.885-20.968h10.3v11.29h-4.414v-3.226h-5.886V16.13zm4.414 9.677v11.29h-7.357v-11.29h7.357zm-8.828 5.384v5.907h-.238l-2.758-7.558-1.366.599 2.54 6.959h-2.725l.143.94a6.858 6.858 0 001.461 3.326v7.024h-3.678v-1.613c1.216 0 2.207-1.085 2.207-2.42 0-1.333-.99-2.419-2.207-2.419V25.264c2.805.977 5.177 3.087 6.62 5.926zm-8.623-8.61l.454 1.494-2.131 3.504-2.132-3.504.455-1.493h3.354zm.53 8.185l-1.296-1.776 1.296-2.132v3.908zm-4.414 0v-3.908l1.296 2.132-1.296 1.776zm0 2.582l2.207-3.024 2.207 3.024v7.117a2.029 2.029 0 00-.736-.141h-.861a2.1 2.1 0 00-1.561.709l-.755.827-.501-.123v-8.39zm1.471 9.729l.825-.904a.702.702 0 01.52-.236h.862c.406 0 .736.362.736.806v.806h1.472c.405 0 .735.362.735.807 0 .444-.33.806-.735.806h-4.415v-2.085zm2.943 3.698v1.613h-4.414v-1.613h4.414zm3.679-28.226v-3.225c.811 0 1.471.723 1.471 1.613 0 .889-.66 1.612-1.471 1.612zm1.471-4.39a2.723 2.723 0 00-1.471-.448v-.807H20.6v1.255zm-.15-6.093h-5V1.982c2.527.86 4.466 3.157 5 6.083zm-6.471-6.412v6.412h-1.472V1.653a6.928 6.928 0 011.472 0zm-2.943.33v6.082h-5c.534-2.926 2.473-5.224 5-6.083zM4.414 9.676h17.657v1.613H4.415V9.677zm2.943 3.226v.807c-.538 0-1.036.17-1.471.448v-1.255h1.471zm-1.471 4.033c0-.89.66-1.613 1.471-1.613v3.225c-.811 0-1.471-.723-1.471-1.612zm2.943 1.612v-5.645h8.828v5.645c0 1.334-.99 2.42-2.207 2.42h-4.414c-1.217 0-2.207-1.086-2.207-2.42zM1.47 37.903v-.53c0-5.613 3.285-10.458 8.093-12.12v16.126l-.798-.194c-1.696-.414-2.88-2.033-2.88-3.937V33.87H4.414v3.377c0 2.666 1.659 4.932 4.033 5.51l2.589.63v1.773H8.093c-3.65 0-6.622-3.256-6.622-7.258zm4.415 8.528a7.41 7.41 0 002.207.343h1.471v1.613H5.886v-1.956zm16.186 1.956v-5.714c.87.548 1.876.86 2.942.873v4.841h-2.942zm10.3-3.226c-1.217 0-2.208-1.085-2.208-2.42 0-.443.33-.806.736-.806h2.943c.405 0 .736.363.736.807 0 1.334-.99 2.42-2.208 2.42zm7.296-3.226h-3.754c-.305-.936-1.114-1.612-2.072-1.612H30.9c-.958 0-1.767.676-2.072 1.612h-3.753c-1.93 0-3.602-1.31-4.256-3.225h23.104c-.652 1.915-2.323 3.225-4.254 3.225z"/><path d="M35.314 17.742h1.472v1.613h-1.472v-1.613zM32.371 17.742h1.472v1.613H32.37v-1.613zM29.429 17.742H30.9v1.613H29.43v-1.613zM35.314 20.968h1.472v1.613h-1.472v-1.613zM29.429 20.968H30.9v1.613H29.43v-1.613zM32.371 20.968h1.472v1.613H32.37v-1.613zM35.314 24.194h1.472v1.612h-1.472v-1.613zM26.486 27.42h1.471v8.064h-1.471v-8.065zM29.429 27.42H30.9v8.064H29.43v-8.065zM35.314 30.645h2.943v1.613h-2.943v-1.613zM35.314 33.871h2.943v1.613h-2.943V33.87z"/></svg>