<?xml version="1.0" encoding="utf-8"?><svg viewBox="0 0 60 60" xmlns="http://www.w3.org/2000/svg" xmlns:xlink="http://www.w3.org/1999/xlink"><style>:root>svg{display:none}:root>svg:target{display:block}</style><svg viewBox="0 0 29 29" id="example" xmlns="http://www.w3.org/2000/svg"><path d="M28.24 22.372l-5.87-3.915a1.713 1.713 0 00-2.294.373l-1.71 2.199a.73.73 0 01-.937.197l-.325-.18c-1.079-.587-2.42-1.319-5.123-4.023-2.703-2.704-3.436-4.046-4.024-5.122l-.178-.326a.732.732 0 01.193-.94l2.197-1.71c.703-.55.865-1.548.373-2.293L6.628.762A1.704 1.704 0 004.33.245L1.876 1.719A3.462 3.462 0 00.297 3.77c-.884 3.22-.219 8.778 7.969 16.966C14.779 27.247 19.627 29 22.96 29a8.56 8.56 0 002.271-.297 3.46 3.46 0 002.05-1.579l1.475-2.453a1.704 1.704 0 00-.517-2.298zm-.317 1.802l-1.472 2.455a2.497 2.497 0 01-1.474 1.142c-2.973.817-8.167.14-16.028-7.72C1.09 12.191.413 6.997 1.23 4.024a2.501 2.501 0 011.144-1.476l2.455-1.472a.74.74 0 01.997.224L7.95 4.492 9.736 7.17a.744.744 0 01-.162.996L7.377 9.874a1.691 1.691 0 00-.448 2.17l.175.318c.617 1.132 1.385 2.542 4.189 5.344 2.803 2.803 4.212 3.571 5.344 4.189l.317.175c.735.412 1.66.22 2.171-.448l1.71-2.198a.744.744 0 01.995-.16l5.87 3.914c.329.218.428.658.223.996zM16.433 4.836a8.225 8.225 0 018.215 8.215.483.483 0 10.967 0 9.192 9.192 0 00-9.182-9.182.483.483 0 100 .967z"/><path d="M16.433 7.735a5.322 5.322 0 015.316 5.316.483.483 0 00.966 0 6.29 6.29 0 00-6.282-6.282.483.483 0 100 .966z"/><path d="M16.433 10.635a2.42 2.42 0 012.416 2.416.483.483 0 10.967 0 3.387 3.387 0 00-3.383-3.383.483.483 0 100 .967z"/></svg><svg viewBox="0 0 13 13" id="icon__close" xmlns="http://www.w3.org/2000/svg"><g clip-path="url(#bclip0)"><path d="M5.309 6.511L.247 1.45A.841.841 0 111.438.26L6.5 5.32 11.562.258a.841.841 0 111.19 1.191L7.692 6.511l5.062 5.062a.84.84 0 11-1.191 1.191L6.5 7.702l-5.062 5.062a.84.84 0 01-1.19 0 .841.841 0 010-1.19L5.308 6.51z"/></g><defs><linearGradient id="bpaint0_linear" x1="13" y1="6.511" x2="0" y2="6.511" gradientUnits="userSpaceOnUse"><stop stop-color="#1C60C7"/><stop offset="1" stop-color="#3380EB"/></linearGradient><clipPath id="bclip0"><path transform="matrix(-1 0 0 1 13 0)" d="M0 0h13v13H0z"/></clipPath></defs></svg><svg viewBox="0 0 20 20" id="icon__control-next" xmlns="http://www.w3.org/2000/svg"><path d="M3.125 10.625h12.468l-4.774 4.547a.625.625 0 10.862.906l5.453-5.194a1.25 1.25 0 00-.011-1.778L11.68 3.922a.622.622 0 00-.884.022.625.625 0 00.022.883l4.794 4.548H3.125a.625.625 0 000 1.25z"/></svg><svg viewBox="0 0 20 20" id="icon__control-prev" xmlns="http://www.w3.org/2000/svg"><path d="M16.875 9.375H4.407L9.18 4.828a.625.625 0 10-.862-.906L2.866 9.116a1.25 1.25 0 00.01 1.778l5.443 5.184a.622.622 0 00.884-.022.625.625 0 00-.022-.884l-4.794-4.547h12.488a.625.625 0 000-1.25z"/></svg><svg viewBox="0 0 15 15" id="icon__dots" xmlns="http://www.w3.org/2000/svg"><path d="M0 0h4v4H0zM11 0h4v4h-4zM11 11h4v4h-4zM0 11h4v4H0z"/></svg><svg viewBox="0 0 17 17" id="icon__download" xmlns="http://www.w3.org/2000/svg"><g clip-path="url(#fclip0)"><path d="M13.606 9.247L8.5 14.353 3.394 9.247l.939-.94 3.503 3.504V0h1.328v11.81l3.503-3.502.94.94zM17 15.672H0V17h17v-1.328z"/></g><defs><clipPath id="fclip0"><path d="M0 0h17v17H0z"/></clipPath></defs></svg><svg viewBox="0 0 48 48" id="icon__house" xmlns="http://www.w3.org/2000/svg"><g clip-path="url(#gclip0)"><path d="M47.2 46.4h-3.25c.035-.262.05-.53.05-.8 0-2.257-1.3-4.18-3.2-5.07V13.6c0-.48-.32-.8-.8-.8H28V.8c0-.48-.32-.799-.8-.799H5.6c-.48 0-.8.32-.8.8v45.6h-4c-.48 0-.8.32-.8.8 0 .48.32.8.8.8h46.4c.48 0 .8-.32.8-.8 0-.48-.32-.8-.8-.8zm-8-6.343a5.405 5.405 0 00-2.556.239C36.504 40.11 36.28 40 36 40c-.48 0-.8.32-.8.8v.245a5.605 5.605 0 00-.96.875c-.663-.829-1.517-1.428-2.482-1.72a.807.807 0 00-.558-.2.945.945 0 00-.25.032 4.74 4.74 0 00-.55-.032c-.501 0-1.066.065-1.523.25l-.169.06a4.988 4.988 0 00-1.88-.95l-.022-.006c-.06-.015-.12-.03-.18-.043l-.146-.029-.064-.012a4.635 4.635 0 00-.369-.049l-.105-.008c-.038-.003-.076-.006-.114-.007a4.69 4.69 0 00-.403-.003l-.114.006-.046.002a4.701 4.701 0 00-2.065.619V14.4h16v25.656zM6.4 1.601h20v11.2h-4c-.48 0-.8.32-.8.8v24.88a5.796 5.796 0 00-1.53-1.096l-.054-.027a5.54 5.54 0 00-1.842-.526l-.027-.003a5.505 5.505 0 00-.547-.028c-1.19 0-2.294.392-3.2 1.05v-.25c0-.48-.32-.8-.8-.8-.48 0-.8.32-.8.8v1.6c0 .12.02.23.057.328a5.767 5.767 0 00-.777 2.152 5.434 5.434 0 00-2.48.932v-.212c0-.48-.32-.8-.8-.8-.48 0-.8.32-.8.8v1.6c0 .093.013.18.036.26a5.579 5.579 0 00-.778 2.14H6.4v-44.8zm6.036 41.617l.048-.004a3.77 3.77 0 01.316-.013c.48 0 .8-.32.8-.8 0-2.24 1.76-4 4-4 2 0 3.68 1.44 3.92 3.44a.868.868 0 00.392.535l.038.023c.03.016.06.03.092.044l.004.001a.888.888 0 00.114.037.461.461 0 00.16.02.773.773 0 00.64-.34l.08-.08c.64-.8 1.52-1.28 2.56-1.28.54 0 1.08.151 1.565.434-.954.898-1.495 2.067-1.558 3.319a4.706 4.706 0 00.27 1.847H8.879c.374-1.722 1.8-3.024 3.556-3.184zM27.764 46.4c-.305-.517-.484-1.128-.484-1.68 0-.885.349-1.682.948-2.264.115-.107.237-.205.366-.293a.802.802 0 00.366-.083c1.76-.96 3.84-.08 4.48 1.68.08.24.32.48.72.48.076 0 .16-.024.244-.067.201-.033.36-.18.476-.413a3.68 3.68 0 011.374-1.554.734.734 0 00.32-.181A4.058 4.058 0 0138.4 41.6c2.24 0 4 1.76 4 4 0 .24 0 .56-.08.8H27.764z"/><path d="M26.4 20.8c-.48 0-.8.32-.8.8v1.6c0 .48.32.8.8.8.48 0 .8-.32.8-.8v-1.6c0-.48-.32-.8-.8-.8zM26.4 35.2c-.48 0-.8.32-.8.8v1.6c0 .48.32.8.8.8.48 0 .8-.32.8-.8V36c0-.48-.32-.8-.8-.8zM26.4 25.6c-.48 0-.8.32-.8.8V28c0 .48.32.8.8.8.48 0 .8-.32.8-.8v-1.6c0-.48-.32-.8-.8-.8zM26.4 30.4c-.48 0-.8.32-.8.8v1.6c0 .48.32.8.8.8.48 0 .8-.32.8-.8v-1.6c0-.48-.32-.8-.8-.8zM26.4 16c-.48 0-.8.32-.8.8v1.6c0 .48.32.8.8.8.48 0 .8-.32.8-.8v-1.6c0-.48-.32-.8-.8-.8zM31.198 24c.48 0 .8-.32.8-.8v-1.6c0-.48-.32-.8-.8-.8-.48 0-.8.32-.8.8v1.6c0 .48.32.8.8.8zM31.198 19.2c.48 0 .8-.32.8-.8v-1.6c0-.48-.32-.8-.8-.8-.48 0-.8.32-.8.8v1.6c0 .48.32.8.8.8zM31.198 28.8c.48 0 .8-.32.8-.8v-1.6c0-.48-.32-.8-.8-.8-.48 0-.8.32-.8.8V28c0 .48.32.8.8.8zM31.198 33.6c.48 0 .8-.32.8-.8v-1.6c0-.48-.32-.8-.8-.8-.48 0-.8.32-.8.8v1.6c0 .48.32.8.8.8zM31.198 38.4c.48 0 .8-.32.8-.8V36c0-.48-.32-.8-.8-.8-.48 0-.8.32-.8.8v1.6c0 .48.32.8.8.8zM36 28.8c.48 0 .8-.32.8-.8v-1.6c0-.48-.32-.8-.8-.8-.48 0-.8.32-.8.8V28c0 .48.32.8.8.8zM36 24c.48 0 .8-.32.8-.8v-1.6c0-.48-.32-.8-.8-.8-.48 0-.8.32-.8.8v1.6c0 .48.32.8.8.8zM36 38.4c.48 0 .8-.32.8-.8V36c0-.48-.32-.8-.8-.8-.48 0-.8.32-.8.8v1.6c0 .48.32.8.8.8zM36 33.6c.48 0 .8-.32.8-.8v-1.6c0-.48-.32-.8-.8-.8-.48 0-.8.32-.8.8v1.6c0 .48.32.8.8.8zM36 19.2c.48 0 .8-.32.8-.8v-1.6c0-.48-.32-.8-.8-.8-.48 0-.8.32-.8.8v1.6c0 .48.32.8.8.8zM8.8 30.4c.48 0 .8-.32.8-.8V28c0-.48-.32-.8-.8-.8-.48 0-.8.32-.8.8v1.6c0 .48.32.8.8.8zM8.8 35.2c.48 0 .8-.32.8-.8v-1.6c0-.48-.32-.8-.8-.8-.48 0-.8.32-.8.8v1.6c0 .48.32.8.8.8zM8.8 40c.48 0 .8-.32.8-.8v-1.6c0-.48-.32-.8-.8-.8-.48 0-.8.32-.8.8v1.6c0 .48.32.8.8.8zM8.8 6.4c.48 0 .8-.32.8-.8V4c0-.48-.32-.8-.8-.8-.48 0-.8.32-.8.8v1.6c0 .48.32.8.8.8zM8.8 11.2c.48 0 .8-.32.8-.8V8.8c0-.48-.32-.8-.8-.8-.48 0-.8.32-.8.8v1.6c0 .48.32.8.8.8zM8.8 16c.48 0 .8-.32.8-.8v-1.6c0-.48-.32-.8-.8-.8-.48 0-.8.32-.8.8v1.6c0 .48.32.8.8.8zM8.8 20.8c.48 0 .8-.32.8-.8v-1.6c0-.48-.32-.8-.8-.8-.48 0-.8.32-.8.8V20c0 .48.32.8.8.8zM8.8 25.6c.48 0 .8-.32.8-.8v-1.6c0-.48-.32-.8-.8-.8-.48 0-.8.32-.8.8v1.6c0 .48.32.8.8.8zM13.6 11.2c.48 0 .8-.32.8-.8V8.8c0-.48-.32-.8-.8-.8-.48 0-.8.32-.8.8v1.6c0 .48.32.8.8.8zM13.6 6.4c.48 0 .8-.32.8-.8V4c0-.48-.32-.8-.8-.8-.48 0-.8.32-.8.8v1.6c0 .48.32.8.8.8zM13.6 20.8c.48 0 .8-.32.8-.8v-1.6c0-.48-.32-.8-.8-.8-.48 0-.8.32-.8.8V20c0 .48.32.8.8.8zM13.6 16c.48 0 .8-.32.8-.8v-1.6c0-.48-.32-.8-.8-.8-.48 0-.8.32-.8.8v1.6c0 .48.32.8.8.8zM13.6 25.6c.48 0 .8-.32.8-.8v-1.6c0-.48-.32-.8-.8-.8-.48 0-.8.32-.8.8v1.6c0 .48.32.8.8.8zM13.6 30.4c.48 0 .8-.32.8-.8V28c0-.48-.32-.8-.8-.8-.48 0-.8.32-.8.8v1.6c0 .48.32.8.8.8zM13.6 35.2c.48 0 .8-.32.8-.8v-1.6c0-.48-.32-.8-.8-.8-.48 0-.8.32-.8.8v1.6c0 .48.32.8.8.8zM18.4 16c.48 0 .8-.32.8-.8v-1.6c0-.48-.32-.8-.8-.8-.48 0-.8.32-.8.8v1.6c0 .48.32.8.8.8zM18.4 11.2c.48 0 .8-.32.8-.8V8.8c0-.48-.32-.8-.8-.8-.48 0-.8.32-.8.8v1.6c0 .48.32.8.8.8zM18.4 6.4c.48 0 .8-.32.8-.8V4c0-.48-.32-.8-.8-.8-.48 0-.8.32-.8.8v1.6c0 .48.32.8.8.8zM18.4 35.2c.48 0 .8-.32.8-.8v-1.6c0-.48-.32-.8-.8-.8-.48 0-.8.32-.8.8v1.6c0 .48.32.8.8.8zM18.4 30.4c.48 0 .8-.32.8-.8V28c0-.48-.32-.8-.8-.8-.48 0-.8.32-.8.8v1.6c0 .48.32.8.8.8zM18.4 25.6c.48 0 .8-.32.8-.8v-1.6c0-.48-.32-.8-.8-.8-.48 0-.8.32-.8.8v1.6c0 .48.32.8.8.8zM18.4 20.8c.48 0 .8-.32.8-.8v-1.6c0-.48-.32-.8-.8-.8-.48 0-.8.32-.8.8V20c0 .48.32.8.8.8zM23.2 11.2c.48 0 .8-.32.8-.8V8.8c0-.48-.32-.8-.8-.8-.48 0-.8.32-.8.8v1.6c0 .48.32.8.8.8zM23.2 6.4c.48 0 .8-.32.8-.8V4c0-.48-.32-.8-.8-.8-.48 0-.8.32-.8.8v1.6c0 .48.32.8.8.8z"/></g><defs><clipPath id="gclip0"><path d="M0 0h48v48H0z"/></clipPath></defs></svg><svg viewBox="0 0 60 60" id="icon__list" xmlns="http://www.w3.org/2000/svg"><path d="M47.57 7.861h-5.428V5.433c0-.786-.857-1.143-1.642-1.143h-4.214c-1-2.857-3.5-4.285-6.357-4.285a6.5 6.5 0 00-6.357 4.285H19.43c-.786 0-1.572.357-1.572 1.143V7.86H12.43a6.071 6.071 0 00-6 5.785v40.926c0 3.142 2.858 5.428 6 5.428h35.14c3.143 0 6-2.286 6-5.428V13.646a6.071 6.071 0 00-6-5.785zm-26.855-.714h3.929A1.572 1.572 0 0026 5.86a4.143 4.143 0 013.928-3.214 4.07 4.07 0 013.857 3.214 1.571 1.571 0 001.428 1.286h4.072v5.714h-18.57V7.147zm29.998 47.425c0 1.571-1.571 2.571-3.143 2.571H12.43c-1.571 0-3.142-1-3.142-2.571V13.646a3.214 3.214 0 013.142-2.928h5.428v3.643a1.5 1.5 0 001.572 1.357H40.5a1.571 1.571 0 001.642-1.357v-3.643h5.428a3.214 3.214 0 013.143 2.928v40.926z"/><path d="M24.501 31.93a1.428 1.428 0 00-2-.07l-4.57 4.356-1.93-2a1.429 1.429 0 00-2-.07 1.5 1.5 0 000 2.07l2.93 3c.253.284.619.44.999.429.377-.006.736-.16 1-.429l5.57-5.285a1.357 1.357 0 00.001-2zM45 35.002H28.571a1.428 1.428 0 100 2.857h16.427a1.428 1.428 0 100-2.857zM24.501 20.503a1.428 1.428 0 00-2-.071l-4.57 4.357-1.93-2a1.428 1.428 0 00-2-.072 1.5 1.5 0 000 2.072l2.93 3c.253.283.619.44.999.428.377-.005.736-.16 1-.429l5.57-5.285a1.357 1.357 0 00.001-2zM45 23.574H28.571a1.428 1.428 0 000 2.857h16.427a1.428 1.428 0 100-2.857zM24.501 43.358a1.428 1.428 0 00-2-.071l-4.57 4.357-1.93-2a1.428 1.428 0 00-2-.072 1.5 1.5 0 000 2.072l2.93 3c.253.283.619.44.999.428.377-.005.736-.16 1-.428l5.57-5.286a1.357 1.357 0 00.001-2zM45 46.43H28.571a1.428 1.428 0 000 2.857h16.427a1.428 1.428 0 100-2.857z"/></svg><svg viewBox="0 0 23 23" id="icon__mail" xmlns="http://www.w3.org/2000/svg"><path d="M20.979 2.74H2.02A2.025 2.025 0 000 4.762v13.476c0 1.11.904 2.022 2.021 2.022h18.957c1.111 0 2.022-.904 2.022-2.022V4.762c0-1.11-.904-2.022-2.021-2.022zm-.28 1.348l-9.156 9.157-9.236-9.157H20.7zM1.348 17.959V5.034l6.49 6.435-6.49 6.49zm.953.953l6.494-6.494 2.275 2.256c.264.261.69.26.951-.002l2.22-2.22 6.458 6.46H2.301zm19.351-.953L15.193 11.5l6.46-6.46v12.92z"/></svg><svg viewBox="0 0 10 10" id="icon__next" xmlns="http://www.w3.org/2000/svg"><g clip-path="url(#jclip0)"><path d="M7.778 4.61L3.328.16A.543.543 0 002.94 0a.543.543 0 00-.387.16l-.328.327a.548.548 0 000 .774l3.737 3.737-3.74 3.741a.543.543 0 00-.16.387c0 .146.056.284.16.387l.327.327c.103.103.24.16.387.16a.543.543 0 00.387-.16l4.454-4.454a.544.544 0 00.16-.388.544.544 0 00-.16-.388z"/></g><defs><clipPath id="jclip0"><path d="M0 0h10v10H0z"/></clipPath></defs></svg><svg viewBox="0 0 20 20" id="icon__phone" xmlns="http://www.w3.org/2000/svg"><g clip-path="url(#kclip0)"><path d="M18.395 13.128c-1.224 0-2.427-.192-3.566-.568-.558-.19-1.245-.016-1.585.334l-2.249 1.697C8.387 13.2 6.781 11.593 5.407 9.005l1.648-2.19a1.617 1.617 0 00.398-1.638 11.373 11.373 0 01-.57-3.572C6.883.72 6.163 0 5.278 0H1.605C.72 0 0 .72 0 1.605 0 11.748 8.252 20 18.395 20 19.28 20 20 19.28 20 18.395v-3.662c0-.885-.72-1.605-1.605-1.605z"/></g><defs><clipPath id="kclip0"><path d="M0 0h20v20H0z"/></clipPath></defs></svg><svg viewBox="0 0 28 28" id="icon__phone-thin" xmlns="http://www.w3.org/2000/svg"><g clip-path="url(#lclip0)"><path d="M18.593 25.667a5.85 5.85 0 01-2.008-.359 21.404 21.404 0 01-7.772-4.954 21.402 21.402 0 01-4.954-7.773 5.809 5.809 0 01-.297-2.855 5.946 5.946 0 013.062-4.36 5.848 5.848 0 012.8-.7c.309 0 .576.217.641.52l1.03 4.806a.656.656 0 01-.178.602l-1.76 1.76a17.274 17.274 0 007.656 7.655l1.76-1.76a.657.657 0 01.601-.177l4.807 1.03a.656.656 0 01.519.641c0 .995-.235 1.937-.7 2.8a5.968 5.968 0 01-4.36 3.062 5.839 5.839 0 01-.847.062zM8.899 6.007a4.545 4.545 0 00-3.25 1.937 4.521 4.521 0 00-.557 4.19 19.904 19.904 0 0011.941 11.94 4.521 4.521 0 004.19-.556 4.545 4.545 0 001.936-3.25l-3.91-.838-1.839 1.838a.656.656 0 01-.743.13 18.581 18.581 0 01-8.898-8.899.656.656 0 01.13-.743l1.838-1.838-.838-3.91z"/></g><defs><clipPath id="lclip0"><path transform="translate(3.5 4.667)" d="M0 0h21v21H0z"/></clipPath></defs></svg><svg viewBox="0 0 24 24" id="icon__pin" xmlns="http://www.w3.org/2000/svg"><path d="M12 0C6.96 0 2.86 4.1 2.86 9.14c0 3.254.99 4.56 5.745 10.83.826 1.088 1.762 2.321 2.832 3.749a.703.703 0 001.126 0 830.012 830.012 0 012.818-3.733c4.767-6.289 5.76-7.597 5.76-10.845C21.14 4.1 17.04 0 12 0zm2.26 19.136c-.675.89-1.424 1.879-2.26 2.99a959.114 959.114 0 00-2.274-3.007c-4.627-6.099-5.46-7.198-5.46-9.978 0-4.265 3.47-7.735 7.734-7.735 4.265 0 7.734 3.47 7.734 7.735 0 2.775-.835 3.877-5.474 9.995z"/><path d="M12 4.219A4.927 4.927 0 007.078 9.14 4.927 4.927 0 0012 14.062a4.928 4.928 0 004.922-4.921A4.927 4.927 0 0012 4.219zm0 8.437a3.52 3.52 0 01-3.516-3.515A3.52 3.52 0 0112 5.625a3.52 3.52 0 013.516 3.516A3.52 3.52 0 0112 12.656z"/></svg><svg viewBox="0 0 42 42" id="icon__plan" xmlns="http://www.w3.org/2000/svg"><path d="M41.087 0H.913A.913.913 0 000 .913v40.174c0 .504.409.913.913.913h5.478a.913.913 0 00.913-.913v-.913h26.479a.91.91 0 00.645-.268l5.478-5.478a.91.91 0 00.268-.645V7.304h.913A.913.913 0 0042 6.391V.913A.913.913 0 0041.087 0zM5.478 40.174H1.826V7.304h3.652v32.87zm0-34.696H1.826V1.826h3.652v3.652zm32.87 27.927l-4.943 4.943h-.535V32.87h5.478v.535zm0-2.361h-6.392a.913.913 0 00-.912.912v6.392H7.304V21.913h4.566a.913.913 0 000-1.826H7.304V7.304h12.783v4.566a.913.913 0 001.826 0V7.304h16.435v23.74zm1.826-25.566H7.304V1.826h32.87v3.652z"/><path d="M21 16.435a.913.913 0 00-.912.913v2.739h-2.74a.913.913 0 000 1.826h3.653c.504 0 .913-.409.913-.913v-3.652a.913.913 0 00-.913-.913z"/></svg><svg viewBox="0 0 6 10" id="icon__prev" xmlns="http://www.w3.org/2000/svg"><path d="M.222 5.39l4.45 4.45c.103.103.24.16.387.16a.543.543 0 00.387-.16l.328-.327a.548.548 0 000-.774L2.037 5.002l3.74-3.74a.543.543 0 00.16-.388.544.544 0 00-.16-.387L5.45.16A.543.543 0 005.063 0a.543.543 0 00-.387.16L.222 4.614a.544.544 0 00-.16.388c0 .147.057.285.16.388z"/></svg><svg viewBox="0 0 21 21" id="icon__search" xmlns="http://www.w3.org/2000/svg"><g clip-path="url(#pclip0)"><path d="M9.248 0C4.148 0 0 4.149 0 9.248c0 5.1 4.149 9.248 9.248 9.248 5.1 0 9.248-4.149 9.248-9.248 0-5.1-4.149-9.248-9.248-9.248zm0 16.789c-4.158 0-7.54-3.383-7.54-7.541s3.382-7.54 7.54-7.54c4.158 0 7.54 3.382 7.54 7.54 0 4.158-3.382 7.54-7.54 7.54z"/><path d="M20.75 19.543l-4.895-4.894a.853.853 0 10-1.207 1.207l4.895 4.894a.85.85 0 001.207 0 .853.853 0 000-1.207z"/></g><defs><clipPath id="pclip0"><path d="M0 0h21v21H0z"/></clipPath></defs></svg><svg viewBox="0 0 46 50" id="icon__tech" xmlns="http://www.w3.org/2000/svg"><path d="M43.022 37.097l2.54-6.958-1.367-.6-2.757 7.558H41.2v-9.678H39.73V14.516h-2.943V11.29h-1.472v3.226h-1.471V9.677H32.37v4.84H30.9V11.29h-1.471v3.226h-2.943v9.678h-2.943v4.136c-1.734-2.334-4.101-4.034-6.787-4.813l-.334-1.098c1.073-.325 1.954-1.156 2.395-2.258h.312c1.623 0 2.942-1.447 2.942-3.226v-4.032c.812 0 1.472-.723 1.472-1.613V9.677c0-.89-.66-1.612-1.471-1.612h-.129C21.24 3.419 17.615 0 13.243 0c-4.372 0-7.997 3.42-8.7 8.065h-.129c-.811 0-1.471.723-1.471 1.612v1.613c0 .89.66 1.613 1.471 1.613v4.033c0 1.779 1.32 3.225 2.943 3.225h.312c.442 1.102 1.322 1.934 2.395 2.258l-.334 1.098C3.98 25.179 0 30.813 0 37.373v.53c0 3.439 1.798 6.42 4.414 7.892V50h22.072v-6.452h2.281c.342 1.838 1.828 3.226 3.604 3.226 1.777 0 3.263-1.388 3.605-3.226h3.692c2.954 0 5.451-2.318 5.937-5.512l.143-.94h-2.726zm-9.18 0v-8.065h5.887v8.065h-5.886zm-5.885-20.968h10.3v11.29h-4.414v-3.226h-5.886V16.13zm4.414 9.677v11.29h-7.357v-11.29h7.357zm-8.828 5.384v5.907h-.238l-2.758-7.558-1.366.599 2.54 6.959h-2.725l.143.94a6.858 6.858 0 001.461 3.326v7.024h-3.678v-1.613c1.216 0 2.207-1.085 2.207-2.42 0-1.333-.99-2.419-2.207-2.419V25.264c2.805.977 5.177 3.087 6.62 5.926zm-8.623-8.61l.454 1.494-2.131 3.504-2.132-3.504.455-1.493h3.354zm.53 8.185l-1.296-1.776 1.296-2.132v3.908zm-4.414 0v-3.908l1.296 2.132-1.296 1.776zm0 2.582l2.207-3.024 2.207 3.024v7.117a2.029 2.029 0 00-.736-.141h-.861a2.1 2.1 0 00-1.561.709l-.755.827-.501-.123v-8.39zm1.471 9.729l.825-.904a.702.702 0 01.52-.236h.862c.406 0 .736.362.736.806v.806h1.472c.405 0 .735.362.735.807 0 .444-.33.806-.735.806h-4.415v-2.085zm2.943 3.698v1.613h-4.414v-1.613h4.414zm3.679-28.226v-3.225c.811 0 1.471.723 1.471 1.613 0 .889-.66 1.612-1.471 1.612zm1.471-4.39a2.723 2.723 0 00-1.471-.448v-.807H20.6v1.255zm-.15-6.093h-5V1.982c2.527.86 4.466 3.157 5 6.083zm-6.471-6.412v6.412h-1.472V1.653a6.928 6.928 0 011.472 0zm-2.943.33v6.082h-5c.534-2.926 2.473-5.224 5-6.083zM4.414 9.676h17.657v1.613H4.415V9.677zm2.943 3.226v.807c-.538 0-1.036.17-1.471.448v-1.255h1.471zm-1.471 4.033c0-.89.66-1.613 1.471-1.613v3.225c-.811 0-1.471-.723-1.471-1.612zm2.943 1.612v-5.645h8.828v5.645c0 1.334-.99 2.42-2.207 2.42h-4.414c-1.217 0-2.207-1.086-2.207-2.42zM1.47 37.903v-.53c0-5.613 3.285-10.458 8.093-12.12v16.126l-.798-.194c-1.696-.414-2.88-2.033-2.88-3.937V33.87H4.414v3.377c0 2.666 1.659 4.932 4.033 5.51l2.589.63v1.773H8.093c-3.65 0-6.622-3.256-6.622-7.258zm4.415 8.528a7.41 7.41 0 002.207.343h1.471v1.613H5.886v-1.956zm16.186 1.956v-5.714c.87.548 1.876.86 2.942.873v4.841h-2.942zm10.3-3.226c-1.217 0-2.208-1.085-2.208-2.42 0-.443.33-.806.736-.806h2.943c.405 0 .736.363.736.807 0 1.334-.99 2.42-2.208 2.42zm7.296-3.226h-3.754c-.305-.936-1.114-1.612-2.072-1.612H30.9c-.958 0-1.767.676-2.072 1.612h-3.753c-1.93 0-3.602-1.31-4.256-3.225h23.104c-.652 1.915-2.323 3.225-4.254 3.225z"/><path d="M35.314 17.742h1.472v1.613h-1.472v-1.613zM32.371 17.742h1.472v1.613H32.37v-1.613zM29.429 17.742H30.9v1.613H29.43v-1.613zM35.314 20.968h1.472v1.613h-1.472v-1.613zM29.429 20.968H30.9v1.613H29.43v-1.613zM32.371 20.968h1.472v1.613H32.37v-1.613zM35.314 24.194h1.472v1.612h-1.472v-1.613zM26.486 27.42h1.471v8.064h-1.471v-8.065zM29.429 27.42H30.9v8.064H29.43v-8.065zM35.314 30.645h2.943v1.613h-2.943v-1.613zM35.314 33.871h2.943v1.613h-2.943V33.87z"/></svg></svg>