<svg width="21" height="21" viewBox="0 0 21 21" fill="none" xmlns="http://www.w3.org/2000/svg">
<g clip-path="url(#clip0)">
<path d="M19.9499 9.45H11.5501V1.04994C11.5501 0.470462 11.0796 0 10.4999 0C9.92046 0 9.45 0.470462 9.45 1.04994V9.45H1.04994C0.470462 9.45 0 9.92046 0 10.4999C0 11.0796 0.470462 11.5501 1.04994 11.5501H9.45V19.9499C9.45 20.5296 9.92046 21.0001 10.4999 21.0001C11.0796 21.0001 11.5501 20.5296 11.5501 19.9499V11.5501H19.9499C20.5296 11.5501 21.0001 11.0796 21.0001 10.4999C21.0001 9.92046 20.5296 9.45 19.9499 9.45Z" fill="#DFE2EE"/>
</g>
<defs>
<clipPath id="clip0">
<rect width="21" height="21" fill="white"/>
</clipPath>
</defs>
</svg>
