<svg width="6" height="10" viewBox="0 0 6 10" fill="none" xmlns="http://www.w3.org/2000/svg">
<path d="M5.14386 4.64882L1.13875 0.643779C1.04611 0.551073 0.922456 0.5 0.790603 0.5C0.658751 0.5 0.535093 0.551073 0.44246 0.643779L0.147511 0.938655C-0.0444142 1.1308 -0.0444142 1.44309 0.147511 1.63494L3.5107 4.99813L0.143779 8.36506C0.0511459 8.45776 0 8.58135 0 8.71313C0 8.84505 0.0511459 8.96864 0.143779 9.06142L0.438728 9.35622C0.531435 9.44893 0.655019 9.5 0.786872 9.5C0.918724 9.5 1.04238 9.44893 1.13502 9.35622L5.14386 5.34752C5.23671 5.25452 5.28771 5.13035 5.28742 4.99835C5.28771 4.86584 5.23671 4.74175 5.14386 4.64882Z" fill="#C0C1C2"/>
</svg>
