<svg width="15" height="16" viewBox="0 0 15 16" fill="none" xmlns="http://www.w3.org/2000/svg">
<path fill-rule="evenodd" clip-rule="evenodd" d="M11.0179 6C10.3407 5.99841 9.68434 5.76517 9.15796 5.339L5.93799 7.34801C6.04415 7.77484 6.04415 8.22116 5.93799 8.64799L9.15796 10.657C9.68484 10.2322 10.3411 10.0004 11.0179 10C11.6113 10 12.1913 10.1759 12.6847 10.5056C13.178 10.8352 13.5625 11.3038 13.7896 11.8519C14.0166 12.4001 14.0761 13.0033 13.9603 13.5853C13.8446 14.1672 13.5588 14.7018 13.1393 15.1213C12.7197 15.5409 12.1852 15.8266 11.6033 15.9424C11.0213 16.0581 10.4181 15.9987 9.86987 15.7716C9.32169 15.5446 8.8532 15.1601 8.52356 14.6667C8.19392 14.1734 8.01794 13.5933 8.01794 13C8.01898 12.7809 8.04579 12.5628 8.0979 12.35L4.87793 10.34C4.43692 10.694 3.90483 10.9162 3.34302 10.9808C2.78121 11.0455 2.21255 10.95 1.70264 10.7055C1.19273 10.4609 0.762318 10.0772 0.46106 9.59863C0.159801 9.12003 0 8.56602 0 8.0005C0 7.43498 0.159801 6.88097 0.46106 6.40237C0.762318 5.92377 1.19273 5.54007 1.70264 5.29552C2.21255 5.05096 2.78121 4.9555 3.34302 5.02017C3.90483 5.08484 4.43692 5.30698 4.87793 5.66099L8.0979 3.651C8.04582 3.43788 8.01902 3.21938 8.01794 3C8.01794 2.40665 8.19392 1.82663 8.52356 1.33328C8.8532 0.839933 9.32169 0.455424 9.86987 0.228361C10.4181 0.00129844 11.0213 -0.0581097 11.6033 0.057646C12.1852 0.173402 12.7197 0.459118 13.1393 0.878676C13.5588 1.29823 13.8446 1.83279 13.9603 2.41473C14.0761 2.99668 14.0166 3.59988 13.7896 4.14805C13.5625 4.69623 13.178 5.16477 12.6847 5.49441C12.1913 5.82406 11.6113 6 11.0179 6ZM11.0179 14C11.2157 14 11.409 13.9413 11.5735 13.8315C11.7379 13.7216 11.8661 13.5654 11.9418 13.3827C12.0175 13.2 12.0374 12.9989 11.9988 12.8049C11.9602 12.6109 11.865 12.4327 11.7251 12.2929C11.5852 12.153 11.407 12.0578 11.213 12.0192C11.019 11.9806 10.818 12.0004 10.6353 12.0761C10.4525 12.1518 10.2964 12.28 10.1865 12.4444C10.0766 12.6089 10.0179 12.8022 10.0179 13C10.0179 13.2652 10.1233 13.5196 10.3108 13.7071C10.4983 13.8946 10.7527 14 11.0179 14ZM3.01794 7C2.82016 7 2.62685 7.05865 2.4624 7.16853C2.29795 7.27841 2.1698 7.43458 2.09412 7.61731C2.01843 7.80003 1.99852 8.0011 2.03711 8.19508C2.07569 8.38906 2.17094 8.56725 2.31079 8.70711C2.45064 8.84696 2.6289 8.9422 2.82288 8.98079C3.01686 9.01937 3.21791 8.99956 3.40063 8.92387C3.58336 8.84818 3.73948 8.72002 3.84937 8.55557C3.95925 8.39112 4.01794 8.19778 4.01794 8C4.01794 7.73478 3.91263 7.48043 3.7251 7.29289C3.53756 7.10535 3.28316 7 3.01794 7ZM11.0179 2C10.8202 2 10.6269 2.05865 10.4624 2.16853C10.298 2.27841 10.1698 2.43458 10.0941 2.61731C10.0184 2.80003 9.99852 3.0011 10.0371 3.19508C10.0757 3.38906 10.1709 3.56725 10.3108 3.70711C10.4506 3.84696 10.6289 3.9422 10.8229 3.98079C11.0169 4.01937 11.2179 3.99956 11.4006 3.92387C11.5834 3.84818 11.7395 3.72002 11.8494 3.55557C11.9592 3.39112 12.0179 3.19778 12.0179 3C12.0179 2.73478 11.9126 2.48043 11.7251 2.29289C11.5376 2.10535 11.2832 2 11.0179 2Z" fill="#333333"/>
</svg>
